<?xml version="1.0" encoding="utf-8"?>
<!-- Generator: Adobe Illustrator 23.0.3, SVG Export Plug-In . SVG Version: 6.00 Build 0)  -->
<svg version="1.1" id="Layer_1" xmlns="http://www.w3.org/2000/svg" xmlns:xlink="http://www.w3.org/1999/xlink" x="0px" y="0px"
	 viewBox="0 0 57.6 60.2" style="enable-background:new 0 0 57.6 60.2;" xml:space="preserve">
<style type="text/css">
	.st0{clip-path:url(#SVGID_2_);fill:#FFFFFF;}
	.st1{clip-path:url(#SVGID_4_);fill:#FFFFFF;}
	.st2{clip-path:url(#SVGID_6_);fill:#FFFFFF;}
	.st3{clip-path:url(#SVGID_8_);fill:#FFFFFF;}
	.st4{clip-path:url(#SVGID_10_);fill:#FFFFFF;}
	.st5{clip-path:url(#SVGID_12_);fill:#FFFFFF;}
</style>
<g>
	<g>
		<defs>
			<rect id="SVGID_1_" width="57.6" height="60.2"/>
		</defs>
		<clipPath id="SVGID_2_">
			<use xlink:href="#SVGID_1_"  style="overflow:visible;"/>
		</clipPath>
		<path class="st0" d="M27.8,34.6c0-1.8,0-3.6,0-5.3c0-0.7,0.5-1.1,1.1-1.1s1,0.4,1,1.1c0,0.2,0,0.4,0,0.7v4.7h0.8
			c6.4,0,12.8,0,19.1,0c1,0,1.4,0.3,1.4,1.3c0,2.2,0,4.5,0,6.7c0,0.1,0,0.3,0,0.4c0,0.7-0.5,1.1-1.1,1.1s-1-0.5-1.1-1.1
			c0-1.8,0-3.7,0-5.5v-0.8H29.9v0.6c0,1.8,0,3.6,0,5.5c0,0.9-0.4,1.3-1.1,1.3s-1.1-0.5-1.1-1.3c0-2,0-4,0-6.1H8.5v4.4
			c0,0.6,0,1.3,0,1.9c0,0.7-0.5,1.1-1.1,1.1s-1-0.5-1-1.1c0-2.5,0-5,0-7.5c0-0.7,0.4-1,1.3-1c5.8,0,11.6,0,17.4,0
			C25.1,34.6,27.8,34.6,27.8,34.6z"/>
	</g>
	<g>
		<defs>
			<rect id="SVGID_3_" width="57.6" height="60.2"/>
		</defs>
		<clipPath id="SVGID_4_">
			<use xlink:href="#SVGID_3_"  style="overflow:visible;"/>
		</clipPath>
		<path class="st1" d="M35.8,7.4c-0.2,2.7-0.9,5.7-3,8.2c-1.8,2.2-4.5,2.4-6.7,0.7c-0.7-0.6-1.4-1.2-1.8-2c-1.7-2.8-2.5-5.9-2-9.2
			C22.7,2,24.8,0.1,28,0c1,0,2,0,2.9,0.2C34.2,0.9,35.9,3.3,35.8,7.4 M33.7,7c0-0.4,0-0.7,0-1c-0.1-2-1.2-3.3-3.1-3.7
			c-1-0.2-2-0.2-3-0.1c-1.9,0.3-2.8,1.2-3.1,3.1c-0.1,1-0.1,2.1,0,3.1c0.3,2.1,0.9,4.1,2.5,5.7c1.7,1.7,3.3,1.6,4.6-0.3
			C33,11.8,33.5,9.4,33.7,7"/>
	</g>
	<g>
		<defs>
			<rect id="SVGID_5_" width="57.6" height="60.2"/>
		</defs>
		<clipPath id="SVGID_6_">
			<use xlink:href="#SVGID_5_"  style="overflow:visible;"/>
		</clipPath>
		<path class="st2" d="M28.9,22.6c1.1-1.2,2.1-2.2,3.1-3.3c0.5-0.5,1-0.7,1.7-0.5c2.1,0.6,4.2,1.1,6.3,1.6c1.2,0.3,1.9,1,2.4,2.1
			c0.7,1.8,0.9,3.8,0.9,5.7c0,0.6-0.5,1.1-1.1,1.1s-1-0.4-1.1-1.1c-0.2-1.4-0.3-2.8-0.5-4.2c-0.1-0.9-0.6-1.4-1.6-1.6
			c-1.7-0.3-3.5-0.8-5.2-1.3c-0.4-0.1-0.6,0-0.9,0.3c-1,1.2-2.1,2.3-3.2,3.4c-0.7,0.8-1.3,0.7-2,0c-1.1-1.1-2.1-2.3-3.2-3.4
			c-0.3-0.3-0.5-0.4-0.9-0.3c-1.8,0.5-3.6,1-5.4,1.4c-0.7,0.1-1.1,0.5-1.2,1.1c-0.2,1.3-0.4,2.7-0.5,4c0,0.3,0,0.6-0.1,0.9
			c-0.1,0.6-0.5,0.9-1.1,0.8c-0.5-0.1-0.9-0.4-0.9-1c0-1.9,0.1-3.8,0.7-5.7c0.4-1.2,1.2-1.9,2.5-2.2c2.1-0.5,4.2-1,6.3-1.6
			c0.7-0.2,1.2,0,1.7,0.5C26.8,20.4,27.9,21.5,28.9,22.6"/>
	</g>
	<g>
		<defs>
			<rect id="SVGID_7_" width="57.6" height="60.2"/>
		</defs>
		<clipPath id="SVGID_8_">
			<use xlink:href="#SVGID_7_"  style="overflow:visible;"/>
		</clipPath>
		<path class="st3" d="M14.9,52.7c0,4.1-3.4,7.5-7.5,7.5S0,56.8,0,52.7s3.4-7.5,7.5-7.5S14.9,48.6,14.9,52.7 M2.1,52.7
			c0,2.9,2.4,5.4,5.3,5.4s5.3-2.4,5.3-5.3c0-3-2.4-5.4-5.3-5.4C4.6,47.4,2.1,49.7,2.1,52.7"/>
	</g>
	<g>
		<defs>
			<rect id="SVGID_9_" width="57.6" height="60.2"/>
		</defs>
		<clipPath id="SVGID_10_">
			<use xlink:href="#SVGID_9_"  style="overflow:visible;"/>
		</clipPath>
		<path class="st4" d="M28.8,60.2c-4.1,0-7.5-3.3-7.5-7.4s3.3-7.5,7.4-7.5s7.5,3.3,7.5,7.4C36.3,56.8,33,60.2,28.8,60.2 M28.8,58.1
			c2.9,0,5.4-2.4,5.4-5.3c0-2.9-2.4-5.3-5.3-5.4c-3,0-5.4,2.3-5.4,5.3C23.5,55.6,25.8,58,28.8,58.1"/>
	</g>
	<g>
		<defs>
			<rect id="SVGID_11_" width="57.6" height="60.2"/>
		</defs>
		<clipPath id="SVGID_12_">
			<use xlink:href="#SVGID_11_"  style="overflow:visible;"/>
		</clipPath>
		<path class="st5" d="M50.2,45.2c4.1,0,7.5,3.4,7.5,7.5s-3.4,7.5-7.5,7.5s-7.4-3.4-7.4-7.5C42.7,48.6,46.1,45.2,50.2,45.2
			 M50.1,58.1c2.9,0,5.4-2.4,5.4-5.3c0-2.9-2.4-5.3-5.3-5.4c-3,0-5.4,2.3-5.4,5.3C44.8,55.6,47.2,58,50.1,58.1"/>
	</g>
	<g>
		<defs>
			<rect id="SVGID_13_" width="57.6" height="60.2"/>
		</defs>
		<clipPath id="SVGID_14_">
			<use xlink:href="#SVGID_13_"  style="overflow:visible;"/>
		</clipPath>
	</g>
	<g>
		<defs>
			<rect id="SVGID_15_" width="57.6" height="60.2"/>
		</defs>
		<clipPath id="SVGID_16_">
			<use xlink:href="#SVGID_15_"  style="overflow:visible;"/>
		</clipPath>
	</g>
	<g>
		<defs>
			<rect id="SVGID_17_" width="57.6" height="60.2"/>
		</defs>
		<clipPath id="SVGID_18_">
			<use xlink:href="#SVGID_17_"  style="overflow:visible;"/>
		</clipPath>
	</g>
	<g>
		<defs>
			<rect id="SVGID_19_" width="57.6" height="60.2"/>
		</defs>
		<clipPath id="SVGID_20_">
			<use xlink:href="#SVGID_19_"  style="overflow:visible;"/>
		</clipPath>
	</g>
</g>
</svg>
