<?xml version="1.0" encoding="utf-8"?>
<!-- Generator: Adobe Illustrator 23.0.3, SVG Export Plug-In . SVG Version: 6.00 Build 0)  -->
<svg version="1.1" id="Layer_1" xmlns="http://www.w3.org/2000/svg" xmlns:xlink="http://www.w3.org/1999/xlink" x="0px" y="0px"
	 viewBox="0 0 57.6 60.2" style="enable-background:new 0 0 57.6 60.2;" xml:space="preserve">
<style type="text/css">
	.st0{clip-path:url(#SVGID_2_);}
	.st1{clip-path:url(#SVGID_2_);fill:#FFFFFF;}
</style>
<g>
	<defs>
		<rect id="SVGID_1_" y="0" width="57.6" height="60.2"/>
	</defs>
	<clipPath id="SVGID_2_">
		<use xlink:href="#SVGID_1_"  style="overflow:visible;"/>
	</clipPath>
	<path class="st0" d="M27.8,34.6c0-1.8,0-3.6,0-5.3c0-0.7,0.5-1.1,1.1-1.1c0.6,0,1,0.4,1,1.1c0,0.2,0,0.4,0,0.7v4.7h0.8
		c6.4,0,12.8,0,19.1,0c1,0,1.4,0.3,1.4,1.3c0,2.2,0,4.5,0,6.7c0,0.1,0,0.3,0,0.4c0,0.7-0.5,1.1-1.1,1.1c-0.6,0-1-0.5-1.1-1.1
		c0-1.8,0-3.7,0-5.5v-0.8H29.9v0.6c0,1.8,0,3.6,0,5.5c0,0.9-0.4,1.3-1.1,1.3c-0.7,0-1.1-0.5-1.1-1.3c0-2,0-4,0-6.1H8.5v4.4
		c0,0.6,0,1.3,0,1.9c0,0.7-0.5,1.1-1.1,1.1c-0.6,0-1-0.5-1-1.1c0-2.5,0-5,0-7.5c0-0.7,0.4-1,1.3-1c5.8,0,11.6,0,17.4,0H27.8z"/>
	<path class="st0" d="M35.8,7.4c-0.2,2.7-0.9,5.7-3,8.2c-1.8,2.2-4.5,2.4-6.7,0.7c-0.7-0.6-1.4-1.2-1.8-2c-1.7-2.8-2.5-5.9-2-9.2
		c0.4-3.1,2.5-5,5.7-5.1c1,0,2,0,2.9,0.2C34.2,0.9,35.9,3.3,35.8,7.4 M33.7,7c0-0.4,0-0.7,0-1c-0.1-2-1.2-3.3-3.1-3.7
		c-1-0.2-2-0.2-3-0.1c-1.9,0.3-2.8,1.2-3.1,3.1c-0.1,1-0.1,2.1,0,3.1c0.3,2.1,0.9,4.1,2.5,5.7c1.7,1.7,3.3,1.6,4.6-0.3
		C33,11.8,33.5,9.4,33.7,7"/>
	<path class="st0" d="M28.9,22.6c1.1-1.2,2.1-2.2,3.1-3.3c0.5-0.5,1-0.7,1.7-0.5c2.1,0.6,4.2,1.1,6.3,1.6c1.2,0.3,1.9,1,2.4,2.1
		c0.7,1.8,0.9,3.8,0.9,5.7c0,0.6-0.5,1.1-1.1,1.1c-0.6,0-1-0.4-1.1-1.1c-0.2-1.4-0.3-2.8-0.5-4.2c-0.1-0.9-0.6-1.4-1.6-1.6
		c-1.7-0.3-3.5-0.8-5.2-1.3c-0.4-0.1-0.6,0-0.9,0.3c-1,1.2-2.1,2.3-3.2,3.4c-0.7,0.8-1.3,0.7-2,0c-1.1-1.1-2.1-2.3-3.2-3.4
		c-0.3-0.3-0.5-0.4-0.9-0.3c-1.8,0.5-3.6,1-5.4,1.4c-0.7,0.1-1.1,0.5-1.2,1.1c-0.2,1.3-0.4,2.7-0.5,4c0,0.3,0,0.6-0.1,0.9
		c-0.1,0.6-0.5,0.9-1.1,0.8c-0.5-0.1-0.9-0.4-0.9-1c0-1.9,0.1-3.8,0.7-5.7c0.4-1.2,1.2-1.9,2.5-2.2c2.1-0.5,4.2-1,6.3-1.6
		c0.7-0.2,1.2,0,1.7,0.5C26.8,20.4,27.9,21.5,28.9,22.6"/>
	<path class="st0" d="M14.9,52.7c0,4.1-3.4,7.5-7.5,7.5c-4.1,0-7.4-3.4-7.4-7.5c0-4.1,3.4-7.5,7.5-7.5
		C11.6,45.2,14.9,48.6,14.9,52.7 M2.1,52.7c0,2.9,2.4,5.4,5.3,5.4c2.9,0,5.3-2.4,5.3-5.3c0-3-2.4-5.4-5.3-5.4
		C4.6,47.4,2.1,49.7,2.1,52.7"/>
	<path class="st0" d="M28.8,60.2c-4.1,0-7.5-3.3-7.5-7.4c0-4.1,3.3-7.5,7.4-7.5c4.1,0,7.5,3.3,7.5,7.4C36.3,56.8,33,60.2,28.8,60.2
		 M28.8,58.1c2.9,0,5.4-2.4,5.4-5.3c0-2.9-2.4-5.3-5.3-5.4c-3,0-5.4,2.3-5.4,5.3C23.5,55.6,25.8,58,28.8,58.1"/>
	<path class="st0" d="M50.2,45.2c4.1,0,7.5,3.4,7.5,7.5c0,4.1-3.4,7.5-7.5,7.5c-4.1,0-7.4-3.4-7.4-7.5
		C42.7,48.6,46.1,45.2,50.2,45.2 M50.1,58.1c2.9,0,5.4-2.4,5.4-5.3c0-2.9-2.4-5.3-5.3-5.4c-3,0-5.4,2.3-5.4,5.3
		C44.8,55.6,47.2,58,50.1,58.1"/>
	<path class="st1" d="M33.7,7c-0.2,2.4-0.7,4.8-2.1,6.8c-1.4,2-3,2.1-4.6,0.3c-1.6-1.6-2.2-3.6-2.5-5.7c-0.2-1-0.2-2.1,0-3.1
		c0.3-1.9,1.2-2.9,3.1-3.1c1-0.1,2.1-0.1,3,0.1c1.9,0.4,3,1.7,3.1,3.7C33.7,6.3,33.7,6.6,33.7,7"/>
	<path class="st1" d="M2.1,52.7c0-2.9,2.4-5.3,5.4-5.3c2.9,0,5.3,2.4,5.3,5.4c0,2.9-2.4,5.3-5.3,5.3C4.5,58,2.1,55.6,2.1,52.7"/>
	<path class="st1" d="M28.8,58.1c-2.9,0-5.3-2.4-5.3-5.4c0-2.9,2.5-5.3,5.4-5.3c2.9,0,5.3,2.4,5.3,5.4
		C34.1,55.7,31.7,58.1,28.8,58.1"/>
	<path class="st1" d="M50.1,58.1c-2.9,0-5.3-2.4-5.3-5.4c0-2.9,2.5-5.3,5.4-5.3c2.9,0,5.3,2.4,5.3,5.4
		C55.5,55.7,53.1,58.1,50.1,58.1"/>
</g>
</svg>
