<?xml version="1.0" encoding="utf-8"?>
<!-- Generator: Adobe Illustrator 23.0.3, SVG Export Plug-In . SVG Version: 6.00 Build 0)  -->
<svg version="1.1" id="Layer_1" xmlns="http://www.w3.org/2000/svg" xmlns:xlink="http://www.w3.org/1999/xlink" x="0px" y="0px"
	 viewBox="0 0 78 78" style="enable-background:new 0 0 78 78;" xml:space="preserve">
<style type="text/css">
	.st0{clip-path:url(#SVGID_2_);fill:#FFFFFF;}
</style>
<g>
	<g>
		<defs>
			<rect id="SVGID_1_" x="23.1" y="22.5" width="31.8" height="33"/>
		</defs>
		<clipPath id="SVGID_2_">
			<use xlink:href="#SVGID_1_"  style="overflow:visible;"/>
		</clipPath>
		<path class="st0" d="M42,45.3c-2.8,0-5.6,0-8.4,0c-1.1,0-1.5-0.3-1.7-1.4c-1.2-5.9-2.3-11.8-3.5-17.7c-0.1-0.4-0.2-0.5-0.6-0.6
			c-1.1-0.2-2.2-0.4-3.3-0.6c-0.4-0.1-0.8-0.3-1.1-0.5c-0.4-0.3-0.4-0.9-0.1-1.3c0.3-0.5,0.7-0.8,1.2-0.7c1.7,0.3,3.5,0.6,5.2,1
			c0.6,0.1,0.8,0.5,1,1.1c0.3,1.6,0.7,3.3,1,4.9c0.1,0.5,0.3,0.7,0.8,0.7c6.8,0,13.5,0,20.3,0c0.2,0,0.4,0,0.6,0
			c1.3,0,1.7,0.6,1.5,1.9c-0.9,4-1.8,8-2.8,12c-0.2,1-0.6,1.3-1.6,1.3C47.6,45.3,44.8,45.3,42,45.3 M32.3,32.7c0,0.2,0,0.4,0.1,0.5
			c0.6,3,1.2,6,1.8,9c0.1,0.4,0.2,0.6,0.7,0.6c4.8,0,9.5,0,14.3,0c0.4,0,0.6-0.1,0.7-0.6c0.4-2.1,0.9-4.1,1.4-6.2
			c0.3-1.1,0.5-2.2,0.8-3.3H32.3z"/>
		<path class="st0" d="M30.9,51.3c0-2.3,1.9-4.2,4.2-4.2c2.3,0,4.1,1.9,4.1,4.2c0,2.3-1.9,4.2-4.2,4.2
			C32.8,55.5,30.9,53.6,30.9,51.3 M35,53c0.9,0,1.7-0.7,1.7-1.6c0-0.9-0.7-1.7-1.6-1.7c-0.9,0-1.7,0.7-1.7,1.7
			C33.4,52.2,34.1,53,35,53"/>
		<path class="st0" d="M43.2,51.4c0-2.3,1.9-4.2,4.2-4.2c2.3,0,4.1,1.9,4.2,4.1c0,2.3-1.8,4.2-4.1,4.2
			C45.1,55.5,43.3,53.7,43.2,51.4 M47.4,53c0.9,0,1.7-0.7,1.7-1.6c0-0.9-0.7-1.7-1.6-1.7c-0.9,0-1.7,0.7-1.7,1.6
			C45.7,52.2,46.5,53,47.4,53"/>
	</g>
</g>
</svg>
