<?xml version="1.0" encoding="utf-8"?>
<!-- Generator: Adobe Illustrator 23.0.3, SVG Export Plug-In . SVG Version: 6.00 Build 0)  -->
<svg version="1.1" id="Layer_1" xmlns="http://www.w3.org/2000/svg" xmlns:xlink="http://www.w3.org/1999/xlink" x="0px" y="0px"
	 viewBox="0 0 64.2 58.8" style="enable-background:new 0 0 64.2 58.8;" xml:space="preserve">
<style type="text/css">
	.st0{clip-path:url(#SVGID_2_);fill:#FFFFFF;}
</style>
<g>
	<defs>
		<rect id="SVGID_1_" y="0" width="64.2" height="58.8"/>
	</defs>
	<clipPath id="SVGID_2_">
		<use xlink:href="#SVGID_1_"  style="overflow:visible;"/>
	</clipPath>
	<path class="st0" d="M35.9,56.7c1.2,0,2.4,0,3.5,0c0.9,0,1.4,0.7,1.1,1.4c-0.2,0.5-0.6,0.7-1.1,0.7c-3.7,0-7.4,0-11.2,0
		c-1.2,0-2.4,0-3.6,0c-0.8,0-1.2-0.4-1.2-1c0-0.6,0.5-1.1,1.2-1.1c1.1,0,2.3,0,3.6,0c-1-0.8-1.8-1.5-2.7-2.2
		c-5.1-4.6-8.3-10.3-9.4-17.2c-0.2-1.1-0.2-2.2-0.2-3.3c0-4.1,0-8.2,0-12.3c0-2.2,1.3-3.5,3.6-3.5c8.3,0,16.6,0,24.9,0
		c2.4,0,3.7,1.3,3.7,3.7c0,3.8,0,7.6,0,11.3c0.1,8.1-3.1,14.8-8.8,20.5C38.4,54.7,37.2,55.7,35.9,56.7 M32.2,20.3
		c-4.2,0-8.4,0-12.5,0c-1.1,0-1.4,0.4-1.4,1.4c0,4.2,0,8.4,0,12.5c0,1.4,0.1,2.8,0.4,4.2c1.7,7.9,6.3,13.7,13,17.9
		c0.4,0.2,0.6,0.1,0.9-0.1c4.3-2.7,7.8-6.1,10.2-10.5c1.8-3.4,3.1-6.9,3.2-10.8c0.1-4.4,0-8.8,0-13.2c0-1-0.4-1.4-1.4-1.4
		C40.5,20.3,36.3,20.3,32.2,20.3"/>
	<path class="st0" d="M39.6,15.7h-2.1c0-1,0-2,0-3c0-0.3,0.3-0.6,0.5-0.8c1.8-1.8,3.6-3.6,5.4-5.4c-0.4-0.9-0.7-1.9-0.5-2.9
		c0.4-2.2,2.4-3.8,4.6-3.6c2.2,0.2,4,2.1,3.9,4.4c-0.1,2.3-1.9,4.1-4.1,4.2c-0.6,0-1.3-0.2-1.9-0.4C45,8.1,44.9,8,44.6,8.3
		c-1.6,1.6-3.1,3.1-4.7,4.7c-0.2,0.2-0.3,0.5-0.3,0.7C39.6,14.3,39.6,15,39.6,15.7 M47.1,6.4c1.2,0,2.1-0.9,2.1-2.1
		c0-1.2-1-2.1-2.2-2.1c-1.2,0-2.1,1-2.1,2.1C45,5.4,45.9,6.4,47.1,6.4"/>
	<path class="st0" d="M21,6.6c1.7,1.7,3.4,3.4,5.2,5.2c0.4,0.4,0.6,0.9,0.6,1.5c0,0.8,0,1.5,0,2.4h-2.1c0-0.6,0-1.3,0-1.9
		c0-0.3-0.1-0.6-0.3-0.8c-1.5-1.6-3.1-3.1-4.6-4.6C19.4,8,19.2,8,18.8,8.2c-1.8,0.8-3.8,0.3-5-1.2c-1.2-1.4-1.3-3.5-0.3-5
		c1-1.6,3-2.4,4.8-1.8c1.8,0.5,3.1,2.2,3.1,4C21.4,5,21.1,5.7,21,6.6 M17.2,6.4c1.2,0,2.1-1,2.1-2.2c0-1.2-1-2.1-2.1-2.1
		c-1.2,0-2.1,1-2.1,2.1C15,5.5,16,6.4,17.2,6.4"/>
	<path class="st0" d="M50.7,24.6v-2.1c1,0,2,0,3,0c0.3,0,0.6-0.2,0.8-0.3c0.5-0.4,0.9-0.9,1.3-1.3c0.3-0.3,0.4-0.5,0.2-1
		c-0.7-1.6-0.3-3.5,0.9-4.7c1.2-1.2,3.1-1.6,4.7-0.9c1.6,0.7,2.6,2.3,2.6,4c-0.1,3-3.2,5-6,3.8c-0.4-0.2-0.6-0.1-0.9,0.2
		c-0.6,0.6-1.2,1.3-1.8,1.8c-0.3,0.3-0.8,0.5-1.1,0.5C53.2,24.7,52,24.6,50.7,24.6 M60,20.3c1.2,0,2.1-1,2.1-2.2
		c0-1.2-1-2.1-2.1-2.1c-1.2,0-2.1,1-2.1,2.1C57.8,19.4,58.8,20.3,60,20.3"/>
	<path class="st0" d="M13.5,22.5v2.1c-1.4,0-2.8,0-4.1,0c-0.2,0-0.5-0.2-0.7-0.4c-0.6-0.6-1.3-1.3-1.9-1.9C6.6,22,6.4,21.9,6,22.1
		c-1.7,0.7-3.2,0.5-4.6-0.7c-1.3-1.1-1.8-2.6-1.3-4.3c0.5-1.7,1.6-2.8,3.4-3.1c1.6-0.3,3,0.2,4,1.5c1.1,1.3,1.3,2.8,0.6,4.4
		c-0.2,0.4,0,0.6,0.2,1c1,1.4,2.3,1.9,4,1.7C12.7,22.4,13.1,22.5,13.5,22.5 M4.3,16.1c-1.2,0-2.1,1-2.1,2.2c0,1.2,1,2.1,2.1,2.1
		c1.2,0,2.1-0.9,2.2-2.1C6.4,17,5.5,16.1,4.3,16.1"/>
	<path class="st0" d="M13.5,35.3v2.1c-1,0-1.9,0-2.9,0c-0.3,0-0.7,0.2-1,0.4c-0.2,0.1-0.3,0.3-0.5,0.4C8.3,39,8,39.7,8.4,40.9
		c0.7,2.3-1.1,4.7-3.6,5.1c-2.3,0.4-4.6-1.4-4.8-3.8c-0.2-2.4,1.6-4.6,4-4.6c0.7,0,1.4,0.2,2,0.4C6.4,38,6.6,38,6.8,37.7
		c0.6-0.6,1.2-1.2,1.8-1.9c0.4-0.4,0.8-0.5,1.3-0.5C11.1,35.3,12.3,35.3,13.5,35.3 M4.3,39.6c-1.2,0-2.2,0.9-2.2,2.1
		c0,1.2,1,2.2,2.2,2.1c1.2,0,2.1-1,2.1-2.1C6.4,40.6,5.5,39.6,4.3,39.6"/>
	<path class="st0" d="M50.7,37.5v-2.1c1.4,0,2.7,0,4.1,0c0.2,0,0.5,0.2,0.7,0.4c0.6,0.6,1.2,1.2,1.8,1.8c0.3,0.3,0.5,0.4,1,0.2
		c1.6-0.7,3.5-0.3,4.7,0.9c1.2,1.2,1.5,3.1,0.8,4.7c-0.7,1.6-2.3,2.6-4,2.6c-3-0.1-5-3.2-3.8-6c0.2-0.4,0.1-0.6-0.2-0.9
		c-1-1.4-2.3-2-4-1.7C51.5,37.5,51.1,37.5,50.7,37.5 M57.8,41.7c0,1.2,0.9,2.2,2.1,2.2c1.2,0,2.2-1,2.1-2.2c0-1.2-0.9-2.1-2.1-2.1
		C58.8,39.6,57.8,40.5,57.8,41.7"/>
	<path class="st0" d="M29.8,38.2c0.8-0.8,1.5-1.5,2.2-2.2c1.9-1.9,3.8-3.8,5.6-5.6c0.4-0.4,0.8-0.6,1.4-0.4c0.7,0.3,0.8,1.2,0.2,1.8
		c-1.8,1.8-3.6,3.6-5.4,5.5c-1,1-2,2-3,3c-0.7,0.6-1.2,0.6-1.8,0c-0.6-0.6-1.2-1.2-1.8-1.8c-0.5-0.5-0.5-1.1-0.1-1.6
		c0.4-0.5,1.1-0.5,1.6,0.1C29.1,37.3,29.4,37.7,29.8,38.2"/>
</g>
</svg>
