<?xml version="1.0" encoding="utf-8"?>
<!-- Generator: Adobe Illustrator 23.0.3, SVG Export Plug-In . SVG Version: 6.00 Build 0)  -->
<svg version="1.1" id="Layer_1" xmlns="http://www.w3.org/2000/svg" xmlns:xlink="http://www.w3.org/1999/xlink" x="0px" y="0px"
	 viewBox="0 0 60.3 54.1" style="enable-background:new 0 0 60.3 54.1;" xml:space="preserve">
<style type="text/css">
	.st0{clip-path:url(#SVGID_2_);fill-rule:evenodd;clip-rule:evenodd;}
</style>
<g>
	<defs>
		<rect id="SVGID_1_" y="0" width="60.3" height="54.1"/>
	</defs>
	<clipPath id="SVGID_2_">
		<use xlink:href="#SVGID_1_"  style="overflow:visible;"/>
	</clipPath>
	<path class="st0" d="M52,41.6h2.1c3.4,0,6.2-2.8,6.2-6.3V25c0-3.5-2.8-6.3-6.2-6.3h-4.2V4.2c0-2.3-1.9-4.2-4.2-4.2H14.6
		c-2.3,0-4.2,1.8-4.2,4.2v14.6H6.2C2.8,18.7,0,21.5,0,25v10.4c0,3.5,2.8,6.3,6.2,6.3h2.1v-6.2H52V41.6z M6.2,39.5
		c-2.3,0-4.2-1.9-4.2-4.2V25c0-2.3,1.9-4.2,4.2-4.2h47.8c2.3,0,4.2,1.9,4.2,4.2v10.4c0,2.3-1.9,4.1-4.2,4.2v-6.2H6.2V39.5z
		 M14.6,2.1c-1.2,0-2.1,0.9-2.1,2.1v14.6h35.4V4.2c0-1.1-0.9-2.1-2.1-2.1H14.6z M47.9,29.1c1.1,0,2.1-0.9,2.1-2.1
		c0-1.1-0.9-2.1-2.1-2.1c-1.1,0-2.1,0.9-2.1,2.1C45.8,28.2,46.7,29.1,47.9,29.1 M10.4,54.1h2.1V37.5h-2.1V54.1z M14.6,52h2.1V37.5
		h-2.1V52z M18.7,54.1h2.1V37.5h-2.1V54.1z M22.9,49.9H25V37.5h-2.1V49.9z M27.1,52h2.1V37.5h-2.1V52z M31.2,49.9h2.1V37.5h-2.1
		V49.9z M35.4,54.1h2.1V37.5h-2.1V54.1z M43.7,52h2.1V37.5h-2.1V52z M47.9,54.1h2.1V37.5h-2.1V54.1z M39.5,49.9h2.1V37.5h-2.1V49.9z
		"/>
</g>
</svg>
