<?xml version="1.0" encoding="utf-8"?>
<!-- Generator: Adobe Illustrator 23.0.3, SVG Export Plug-In . SVG Version: 6.00 Build 0)  -->
<svg version="1.1" id="Layer_1" xmlns="http://www.w3.org/2000/svg" xmlns:xlink="http://www.w3.org/1999/xlink" x="0px" y="0px"
	 viewBox="0 0 58.5 58.6" style="enable-background:new 0 0 58.5 58.6;" xml:space="preserve">
<style type="text/css">
	.st0{clip-path:url(#SVGID_2_);}
	.st1{clip-path:url(#SVGID_2_);fill:none;stroke:#000000;stroke-width:0.6;stroke-miterlimit:10;}
</style>
<g>
	<defs>
		<rect id="SVGID_1_" y="0" width="58.5" height="58.6"/>
	</defs>
	<clipPath id="SVGID_2_">
		<use xlink:href="#SVGID_1_"  style="overflow:visible;"/>
	</clipPath>
	<path class="st0" d="M50,46.5c2.4,2.4,4.7,4.7,7.1,7.1c1.3,1.3,1.4,2.8,0.3,3.9c-1.1,1.1-2.7,1-4-0.3c-1.9-1.9-3.8-3.8-5.7-5.7
		c-0.3-0.3-0.5-0.6-0.8-1c-0.1,0.1-0.2,0.1-0.3,0.2c0,1,0,1.9,0,2.9c0,0.4,0.1,0.8,0,1.1c-0.1,0.3-0.5,0.6-0.8,0.8
		c-0.2,0.1-0.5,0-0.7,0c-14.4,0-28.8,0-43.2,0c-1.5,0-1.6-0.1-1.6-1.6c0-17.4,0-34.8,0-52.2c0-1.5,0.1-1.6,1.5-1.6
		c11.8,0,23.5,0,35.3,0c0.7,0,1.2,0.1,1.7,0.6C41.2,3.5,43.6,6,46,8.6c0.4,0.4,0.6,1,0.6,1.6c0,6.8,0,13.7,0,20.5
		c0,0.4,0.2,1,0.5,1.2c4.5,3.6,5.7,9,3.1,14.2C50.2,46.2,50.1,46.3,50,46.5 M36.9,1.9h-1c-10.9,0-21.9,0-32.8,0
		C2.1,1.9,1.9,2.1,1.9,3c0,16.7,0,33.4,0,50c0,0.3,0,0.6,0.1,1h43v-3c-0.5,0.1-0.9,0.3-1.2,0.4c-4.3,1.1-8.2,0.2-11.2-3.1
		c-3-3.3-3.9-7.2-2.2-11.4c0.7-1.8,1-3.5,0.9-5.4c0-0.5,0-0.9,0-1.4c0-0.6,0.1-1.2,0.9-1.2c0.7,0,0.8,0.6,0.8,1.1c0,0.9,0,1.7,0,2.8
		c3.7-3.2,7.7-3.7,12.1-2.2c0-0.2,0.1-0.4,0.1-0.5c0-6.3,0-12.6,0-18.9c0-0.6-0.2-0.8-0.8-0.8c-2,0-4.1,0-6.1,0
		c-0.9,0-1.2-0.3-1.2-1.2c0-0.7,0-1.4,0-2C36.9,5.4,36.9,3.7,36.9,1.9 M40.7,31.4c-5.1-0.1-9.4,4.1-9.5,9.2
		c-0.1,5.2,4.1,9.5,9.3,9.5c5.2,0.1,9.5-4.1,9.6-9.3C50,35.7,45.8,31.4,40.7,31.4 M47.8,49.3c2.4,2.4,4.7,4.8,7.1,7.1
		c0.4,0.4,1,0.5,1.4,0c0.4-0.4,0.3-0.9-0.1-1.3c-0.9-0.9-1.7-1.7-2.6-2.6c-1.5-1.5-3-3.1-4.6-4.7C48.6,48.3,48.2,48.8,47.8,49.3
		 M38.8,3.4c-0.1,0-0.1,0.1-0.2,0.1c0,1.6,0,3.2,0,4.9c0,0.2,0.2,0.5,0.4,0.5c1.6,0,3.2,0,5,0C42.1,6.9,40.4,5.1,38.8,3.4"/>
	<path class="st1" d="M50,46.5c2.4,2.4,4.7,4.7,7.1,7.1c1.3,1.3,1.4,2.8,0.3,3.9c-1.1,1.1-2.7,1-4-0.3c-1.9-1.9-3.8-3.8-5.7-5.7
		c-0.3-0.3-0.5-0.6-0.8-1c-0.1,0.1-0.2,0.1-0.3,0.2c0,1,0,1.9,0,2.9c0,0.4,0.1,0.8,0,1.1c-0.1,0.3-0.5,0.6-0.8,0.8
		c-0.2,0.1-0.5,0-0.7,0c-14.4,0-28.8,0-43.2,0c-1.5,0-1.6-0.1-1.6-1.6c0-17.4,0-34.8,0-52.2c0-1.5,0.1-1.6,1.5-1.6
		c11.8,0,23.5,0,35.3,0c0.7,0,1.2,0.1,1.7,0.6C41.2,3.5,43.6,6,46,8.6c0.4,0.4,0.6,1,0.6,1.6c0,6.8,0,13.7,0,20.5
		c0,0.4,0.2,1,0.5,1.2c4.5,3.6,5.7,9,3.1,14.2C50.2,46.2,50.1,46.3,50,46.5z M36.9,1.9h-1c-10.9,0-21.9,0-32.8,0
		C2.1,1.9,1.9,2.1,1.9,3c0,16.7,0,33.4,0,50c0,0.3,0,0.6,0.1,1h43v-3c-0.5,0.1-0.9,0.3-1.2,0.4c-4.3,1.1-8.2,0.2-11.2-3.1
		c-3-3.3-3.9-7.2-2.2-11.4c0.7-1.8,1-3.5,0.9-5.4c0-0.5,0-0.9,0-1.4c0-0.6,0.1-1.2,0.9-1.2c0.7,0,0.8,0.6,0.8,1.1c0,0.9,0,1.7,0,2.8
		c3.7-3.2,7.7-3.7,12.1-2.2c0-0.2,0.1-0.4,0.1-0.5c0-6.3,0-12.6,0-18.9c0-0.6-0.2-0.8-0.8-0.8c-2,0-4.1,0-6.1,0
		c-0.9,0-1.2-0.3-1.2-1.2c0-0.7,0-1.4,0-2C36.9,5.4,36.9,3.7,36.9,1.9z M40.7,31.4c-5.1-0.1-9.4,4.1-9.5,9.2
		c-0.1,5.2,4.1,9.5,9.3,9.5c5.2,0.1,9.5-4.1,9.6-9.3C50,35.7,45.8,31.4,40.7,31.4z M47.8,49.3c2.4,2.4,4.7,4.8,7.1,7.1
		c0.4,0.4,1,0.5,1.4,0c0.4-0.4,0.3-0.9-0.1-1.3c-0.9-0.9-1.7-1.7-2.6-2.6c-1.5-1.5-3-3.1-4.6-4.7C48.6,48.3,48.2,48.8,47.8,49.3z
		 M38.8,3.4c-0.1,0-0.1,0.1-0.2,0.1c0,1.6,0,3.2,0,4.9c0,0.2,0.2,0.5,0.4,0.5c1.6,0,3.2,0,5,0C42.1,6.9,40.4,5.1,38.8,3.4z"/>
	<path class="st0" d="M28.4,43.2c0,2.2-1,3.4-2.7,3.4c-1.7,0-2.8-1.2-2.8-3.4c0-0.3,0-0.5,0-0.8c0.1-1.5,1.2-2.6,2.7-2.6
		c1.5,0,2.7,1.1,2.8,2.7C28.5,42.7,28.4,43,28.4,43.2 M24.6,43.2C24.6,43.2,24.6,43.2,24.6,43.2c0,0.2,0,0.5,0,0.7
		c0,0.6,0.4,1.1,1,1.1c0.7,0,1.1-0.4,1.1-1c0.1-0.6,0.1-1.2-0.1-1.7c-0.1-0.4-0.7-0.8-1-0.8c-0.4,0-0.7,0.5-1,0.9
		C24.5,42.6,24.6,42.9,24.6,43.2"/>
	<path class="st1" d="M28.4,43.2c0,2.2-1,3.4-2.7,3.4c-1.7,0-2.8-1.2-2.8-3.4c0-0.3,0-0.5,0-0.8c0.1-1.5,1.2-2.6,2.7-2.6
		c1.5,0,2.7,1.1,2.8,2.7C28.5,42.7,28.4,43,28.4,43.2z M24.6,43.2C24.6,43.2,24.6,43.2,24.6,43.2c0,0.2,0,0.5,0,0.7
		c0,0.6,0.4,1.1,1,1.1c0.7,0,1.1-0.4,1.1-1c0.1-0.6,0.1-1.2-0.1-1.7c-0.1-0.4-0.7-0.8-1-0.8c-0.4,0-0.7,0.5-1,0.9
		C24.5,42.6,24.6,42.9,24.6,43.2z"/>
	<path class="st0" d="M28.4,32.3c0,2.3-1.3,3.7-3.2,3.3c-1.6-0.3-2.3-1.4-2.2-3.8c0-1.7,0.9-2.8,2.3-3c1.6-0.2,3,0.9,3.1,2.5
		C28.5,31.6,28.4,31.9,28.4,32.3 M24.6,32.2c0,0.1,0,0.3,0,0.4c0,0.9,0.4,1.4,1.1,1.3c0.8-0.1,1.1-0.6,1.1-1.3c0-0.1,0-0.3,0-0.4
		c0-1.2-0.4-1.8-1.1-1.8C25,30.4,24.6,31,24.6,32.2"/>
	<path class="st1" d="M28.4,32.3c0,2.3-1.3,3.7-3.2,3.3c-1.6-0.3-2.3-1.4-2.2-3.8c0-1.7,0.9-2.8,2.3-3c1.6-0.2,3,0.9,3.1,2.5
		C28.5,31.6,28.4,31.9,28.4,32.3z M24.6,32.2c0,0.1,0,0.3,0,0.4c0,0.9,0.4,1.4,1.1,1.3c0.8-0.1,1.1-0.6,1.1-1.3c0-0.1,0-0.3,0-0.4
		c0-1.2-0.4-1.8-1.1-1.8C25,30.4,24.6,31,24.6,32.2z"/>
	<path class="st0" d="M28.4,21.2c0,2.3-1.1,3.5-3,3.3c-0.4,0-0.8-0.2-1.2-0.4c-1.7-0.8-1.6-5.1,0-6c1.8-1,4,0,4.2,2.1
		C28.5,20.6,28.4,20.9,28.4,21.2 M26.8,21.2c0-0.2,0-0.4,0-0.5c0-0.7-0.4-1.2-1.1-1.2c-0.8,0-1.1,0.5-1.1,1.2c0,0.4,0,0.8,0,1.2
		c0,0.7,0.4,1.1,1.1,1.1c0.7,0,1-0.5,1.1-1.1C26.8,21.6,26.8,21.4,26.8,21.2"/>
	<path class="st1" d="M28.4,21.2c0,2.3-1.1,3.5-3,3.3c-0.4,0-0.8-0.2-1.2-0.4c-1.7-0.8-1.6-5.1,0-6c1.8-1,4,0,4.2,2.1
		C28.5,20.6,28.4,20.9,28.4,21.2z M26.8,21.2c0-0.2,0-0.4,0-0.5c0-0.7-0.4-1.2-1.1-1.2c-0.8,0-1.1,0.5-1.1,1.2c0,0.4,0,0.8,0,1.2
		c0,0.7,0.4,1.1,1.1,1.1c0.7,0,1-0.5,1.1-1.1C26.8,21.6,26.8,21.4,26.8,21.2z"/>
	<path class="st0" d="M10.2,21.2c0.1-0.5,0-1.1,0.2-1.6c0.4-1.2,1.6-2,2.8-1.8c1.3,0.1,2.3,1.2,2.4,2.4c0.1,0.6,0.1,1.2,0,1.9
		c-0.1,1.5-1.3,2.5-2.8,2.5c-1.5,0-2.5-1.1-2.6-2.6C10.2,21.7,10.2,21.5,10.2,21.2C10.2,21.2,10.2,21.2,10.2,21.2 M11.9,21.2
		c0,0.2,0,0.4,0,0.6c0,0.7,0.4,1.1,1,1.1c0.7,0,1.1-0.4,1.1-1.1c0-0.2,0-0.4,0-0.6c0-1.3-0.4-1.9-1.1-1.8
		C12.2,19.5,11.9,20,11.9,21.2"/>
	<path class="st1" d="M10.2,21.2c0.1-0.5,0-1.1,0.2-1.6c0.4-1.2,1.6-2,2.8-1.8c1.3,0.1,2.3,1.2,2.4,2.4c0.1,0.6,0.1,1.2,0,1.9
		c-0.1,1.5-1.3,2.5-2.8,2.5c-1.5,0-2.5-1.1-2.6-2.6C10.2,21.7,10.2,21.5,10.2,21.2C10.2,21.2,10.2,21.2,10.2,21.2z M11.9,21.2
		c0,0.2,0,0.4,0,0.6c0,0.7,0.4,1.1,1,1.1c0.7,0,1.1-0.4,1.1-1.1c0-0.2,0-0.4,0-0.6c0-1.3-0.4-1.9-1.1-1.8
		C12.2,19.5,11.9,20,11.9,21.2z"/>
	<path class="st0" d="M10.2,32.1c0.1-0.5,0-1,0.2-1.5c0.3-1.2,1.6-2,2.8-1.8c1.2,0.1,2.3,1.1,2.4,2.3c0.1,0.6,0.1,1.2,0,1.9
		c-0.1,1.6-1.3,2.7-2.8,2.6c-1.5,0-2.6-1.2-2.6-2.7C10.2,32.7,10.2,32.4,10.2,32.1C10.2,32.1,10.2,32.1,10.2,32.1 M11.9,32.2
		c0,0.1,0,0.3,0,0.4c0,0.9,0.4,1.3,1.1,1.3c0.7,0,1.1-0.5,1.1-1.3c0-0.1,0-0.3,0-0.4c0-1.2-0.4-1.8-1.1-1.8
		C12.2,30.4,11.9,31,11.9,32.2"/>
	<path class="st1" d="M10.2,32.1c0.1-0.5,0-1,0.2-1.5c0.3-1.2,1.6-2,2.8-1.8c1.2,0.1,2.3,1.1,2.4,2.3c0.1,0.6,0.1,1.2,0,1.9
		c-0.1,1.6-1.3,2.7-2.8,2.6c-1.5,0-2.6-1.2-2.6-2.7C10.2,32.7,10.2,32.4,10.2,32.1C10.2,32.1,10.2,32.1,10.2,32.1z M11.9,32.2
		c0,0.1,0,0.3,0,0.4c0,0.9,0.4,1.3,1.1,1.3c0.7,0,1.1-0.5,1.1-1.3c0-0.1,0-0.3,0-0.4c0-1.2-0.4-1.8-1.1-1.8
		C12.2,30.4,11.9,31,11.9,32.2z"/>
	<path class="st0" d="M41.3,21.2c0,2.3-1.2,3.6-3.1,3.4c-0.4,0-0.8-0.2-1.1-0.4c-1.5-0.9-1.3-2.3-1.3-3.7c0-1.1,0.5-1.9,1.5-2.4
		c1.5-0.8,3.4,0,3.8,1.7C41.2,20.2,41.2,20.7,41.3,21.2 M37.4,21.2L37.4,21.2c0,0.2,0,0.4,0,0.6c0,0.7,0.3,1.2,1,1.2
		c0.8,0,1.1-0.5,1.1-1.2c0-0.4,0-0.9,0-1.3c-0.1-0.6-0.5-1-1.1-1c-0.6,0-1,0.4-1,1C37.4,20.7,37.4,20.9,37.4,21.2"/>
	<path class="st1" d="M41.3,21.2c0,2.3-1.2,3.6-3.1,3.4c-0.4,0-0.8-0.2-1.1-0.4c-1.5-0.9-1.3-2.3-1.3-3.7c0-1.1,0.5-1.9,1.5-2.4
		c1.5-0.8,3.4,0,3.8,1.7C41.2,20.2,41.2,20.7,41.3,21.2z M37.4,21.2L37.4,21.2c0,0.2,0,0.4,0,0.6c0,0.7,0.3,1.2,1,1.2
		c0.8,0,1.1-0.5,1.1-1.2c0-0.4,0-0.9,0-1.3c-0.1-0.6-0.5-1-1.1-1c-0.6,0-1,0.4-1,1C37.4,20.7,37.4,20.9,37.4,21.2z"/>
	<path class="st0" d="M10.2,43.2c0.1-0.5,0-1,0.2-1.5c0.3-1.2,1.6-2,2.8-1.9c1.3,0.1,2.3,1.1,2.4,2.3c0.1,0.6,0.1,1.3,0,2
		c-0.1,1.5-1.3,2.6-2.8,2.6c-1.5,0-2.6-1.2-2.6-2.7C10.2,43.7,10.2,43.4,10.2,43.2C10.2,43.2,10.2,43.2,10.2,43.2 M11.9,43.2
		c0,0.2,0,0.4,0,0.5c0,0.7,0.3,1.2,1.1,1.3c0.8,0,1.1-0.5,1.1-1.2c0-0.4,0-0.7,0-1.1c0-0.7-0.3-1.2-1.1-1.3c-0.7,0-1.1,0.5-1.1,1.3
		C11.9,42.9,11.9,43.1,11.9,43.2"/>
	<path class="st1" d="M10.2,43.2c0.1-0.5,0-1,0.2-1.5c0.3-1.2,1.6-2,2.8-1.9c1.3,0.1,2.3,1.1,2.4,2.3c0.1,0.6,0.1,1.3,0,2
		c-0.1,1.5-1.3,2.6-2.8,2.6c-1.5,0-2.6-1.2-2.6-2.7C10.2,43.7,10.2,43.4,10.2,43.2C10.2,43.2,10.2,43.2,10.2,43.2z M11.9,43.2
		c0,0.2,0,0.4,0,0.5c0,0.7,0.3,1.2,1.1,1.3c0.8,0,1.1-0.5,1.1-1.2c0-0.4,0-0.7,0-1.1c0-0.7-0.3-1.2-1.1-1.3c-0.7,0-1.1,0.5-1.1,1.3
		C11.9,42.9,11.9,43.1,11.9,43.2z"/>
	<path class="st0" d="M5.7,43.2c0-0.8,0-1.6,0-2.4c0-0.5,0.2-1,0.8-1c0.6,0,0.9,0.4,0.9,1c0,1.6,0,3.3,0,4.9c0,0.5-0.2,0.9-0.8,0.9
		c-0.6,0-0.8-0.4-0.8-0.9C5.7,44.9,5.7,44,5.7,43.2"/>
	<path class="st1" d="M5.7,43.2c0-0.8,0-1.6,0-2.4c0-0.5,0.2-1,0.8-1c0.6,0,0.9,0.4,0.9,1c0,1.6,0,3.3,0,4.9c0,0.5-0.2,0.9-0.8,0.9
		c-0.6,0-0.8-0.4-0.8-0.9C5.7,44.9,5.7,44,5.7,43.2z"/>
	<path class="st0" d="M7.4,21.2c0,0.8,0.1,1.7,0,2.5c0,0.3-0.4,0.8-0.7,0.9c-0.6,0.1-0.9-0.3-0.9-0.9c0-1.7,0-3.3,0-5
		c0-0.5,0.2-1,0.8-1c0.6,0,0.8,0.5,0.8,1C7.4,19.6,7.4,20.4,7.4,21.2"/>
	<path class="st1" d="M7.4,21.2c0,0.8,0.1,1.7,0,2.5c0,0.3-0.4,0.8-0.7,0.9c-0.6,0.1-0.9-0.3-0.9-0.9c0-1.7,0-3.3,0-5
		c0-0.5,0.2-1,0.8-1c0.6,0,0.8,0.5,0.8,1C7.4,19.6,7.4,20.4,7.4,21.2z"/>
	<path class="st0" d="M7.4,32.3c0,0.8,0,1.5,0,2.3c0,0.6-0.2,1-0.8,1c-0.6,0-0.8-0.4-0.8-1c0-1.7,0-3.3,0-5c0-0.3,0.4-0.8,0.8-0.9
		c0.6-0.1,0.8,0.3,0.8,0.9C7.4,30.6,7.4,31.4,7.4,32.3L7.4,32.3z"/>
	<path class="st1" d="M7.4,32.3c0,0.8,0,1.5,0,2.3c0,0.6-0.2,1-0.8,1c-0.6,0-0.8-0.4-0.8-1c0-1.7,0-3.3,0-5c0-0.3,0.4-0.8,0.8-0.9
		c0.6-0.1,0.8,0.3,0.8,0.9C7.4,30.6,7.4,31.4,7.4,32.3L7.4,32.3z"/>
	<path class="st0" d="M20.1,21.2c0,0.8,0.1,1.7,0,2.5c0,0.3-0.4,0.8-0.7,0.9c-0.5,0.1-0.9-0.3-0.9-0.9c0-1.7,0-3.3,0-5
		c0-0.3,0.5-0.9,0.8-0.9c0.5-0.1,0.8,0.4,0.8,0.9C20.1,19.6,20.1,20.4,20.1,21.2"/>
	<path class="st1" d="M20.1,21.2c0,0.8,0.1,1.7,0,2.5c0,0.3-0.4,0.8-0.7,0.9c-0.5,0.1-0.9-0.3-0.9-0.9c0-1.7,0-3.3,0-5
		c0-0.3,0.5-0.9,0.8-0.9c0.5-0.1,0.8,0.4,0.8,0.9C20.1,19.6,20.1,20.4,20.1,21.2z"/>
	<path class="st0" d="M32.9,21.2c0,0.8,0,1.6,0,2.4c0,0.6-0.2,1-0.8,1c-0.6,0-0.8-0.4-0.8-0.9c0-1.7,0-3.3,0-5
		c0-0.6,0.3-0.9,0.8-0.9c0.6,0,0.8,0.4,0.8,1C32.9,19.6,32.9,20.4,32.9,21.2"/>
	<path class="st1" d="M32.9,21.2c0,0.8,0,1.6,0,2.4c0,0.6-0.2,1-0.8,1c-0.6,0-0.8-0.4-0.8-0.9c0-1.7,0-3.3,0-5
		c0-0.6,0.3-0.9,0.8-0.9c0.6,0,0.8,0.4,0.8,1C32.9,19.6,32.9,20.4,32.9,21.2z"/>
	<path class="st0" d="M20.1,32.2c0,0.8,0,1.7,0,2.5c0,0.6-0.2,0.9-0.8,0.9c-0.6,0-0.8-0.4-0.8-0.9c0-1.6,0-3.3,0-4.9
		c0-0.6,0.2-1,0.9-1c0.6,0,0.8,0.4,0.8,1C20.1,30.6,20.1,31.4,20.1,32.2"/>
	<path class="st1" d="M20.1,32.2c0,0.8,0,1.7,0,2.5c0,0.6-0.2,0.9-0.8,0.9c-0.6,0-0.8-0.4-0.8-0.9c0-1.6,0-3.3,0-4.9
		c0-0.6,0.2-1,0.9-1c0.6,0,0.8,0.4,0.8,1C20.1,30.6,20.1,31.4,20.1,32.2z"/>
	<path class="st0" d="M20.1,43.3c0,0.8,0.1,1.7,0,2.5c0,0.3-0.4,0.8-0.7,0.9c-0.6,0.1-0.9-0.3-0.9-0.9c0-1.7,0-3.4,0-5.1
		c0-0.3,0.5-0.8,0.8-0.8c0.6-0.1,0.8,0.4,0.8,0.9C20.1,41.6,20.1,42.4,20.1,43.3"/>
	<path class="st1" d="M20.1,43.3c0,0.8,0.1,1.7,0,2.5c0,0.3-0.4,0.8-0.7,0.9c-0.6,0.1-0.9-0.3-0.9-0.9c0-1.7,0-3.4,0-5.1
		c0-0.3,0.5-0.8,0.8-0.8c0.6-0.1,0.8,0.4,0.8,0.9C20.1,41.6,20.1,42.4,20.1,43.3z"/>
</g>
</svg>
