<?xml version="1.0" encoding="utf-8"?>
<!-- Generator: Adobe Illustrator 23.0.3, SVG Export Plug-In . SVG Version: 6.00 Build 0)  -->
<svg version="1.1" id="Layer_1" xmlns="http://www.w3.org/2000/svg" xmlns:xlink="http://www.w3.org/1999/xlink" x="0px" y="0px"
	 viewBox="0 0 275.7 182" style="enable-background:new 0 0 275.7 182;" xml:space="preserve">
<style type="text/css">
	.st0{clip-path:url(#SVGID_2_);fill:#FFFFFF;}
	.st1{clip-path:url(#SVGID_2_);}
</style>
<g>
	<defs>
		<rect id="SVGID_1_" width="275.7" height="182"/>
	</defs>
	<clipPath id="SVGID_2_">
		<use xlink:href="#SVGID_1_"  style="overflow:visible;"/>
	</clipPath>
	<path class="st0" d="M62.7,53.4c0,0,7.3,7.7,7.9,8.9c0,0-10.6,2.3-13.1,9.2c0,0,7.5-0.2,11,3.8c3.5,4,4.2,4.6,4.2,4.6l3.1,0.8
		c0,0,0.6,2.1,4.2,5.8c3.7,3.7,2.9,3.5,2.9,3.5s0.6,8.3,1,8.9c0.4,0.6,3.3,18.5,3.3,18.5s12.5-0.6,17.5-3.8c5-3.3,11.2-9.2,14.2-16
		c3.1-6.7,13.1-20,16.6-21.9c3.5-1.9,4.8-1.3,4.8-1.3s26.9-7.9,43.3-15c16.4-7.1,54.9-37.7,54.9-37.7l1-2.9l36-18.3l-37.9,15.8
		l-2.3-1c0,0-35.2,1-54.1,10.2c-18.9,9.2-32.3,13.5-44.5,23.1c0,0-2.1,3.5-12.3,3.3c-10.2-0.2-29.3-7.5-38.3-6.9
		C77,45.3,70.2,45.3,62.7,53.4"/>
	<path class="st0" d="M180,9.4c-0.4-0.2,22.3-7.6,22.3-7.6s-4,5.2-8.6,6.7C189,10,183,10.9,180,9.4"/>
	<path class="st0" d="M150.3,12.7c0,0-2.9,2-3.3,2.9c-0.4,0.8,20.9,0.5,20.9,0.5l-0.5-1.8L150.3,12.7z"/>
	<path class="st0" d="M105.1,0.4c0,0,10.5,18.3,31.3,21c0,0-3.4,1.1-5.2,0.7c-1.8-0.4-19.5-1.9-28-8.9c-8.5-7-8.5-8.1-8.5-8.1
		L105.1,0.4z"/>
	<path class="st0" d="M82,18.6c0.4-0.1,19.7,11.1,19.7,11.1S90.2,30.7,83.1,26C76,21.2,74.6,20.5,82,18.6"/>
	<path class="st0" d="M46.5,9.6c0,0,8.5,14.1,23.9,16c0,0-17.6-2.9-21.6-4.6C44.9,19.1,41.2,16,46.5,9.6"/>
	<path class="st0" d="M132.4,96.8c0,0-7.8,7.9-11.5,19.8c-3.7,11.9-3.3,11.9-3.3,11.9s10.8,10.6,11.2,10.4c0.4-0.3,0.5-4.5,0.5-4.5
		s-4.5-12.7-0.8-23.8c3.7-11.1,6.7-14.2,6.7-14.2L132.4,96.8z"/>
	<path class="st0" d="M171,81.1c0,0-9,7-10.2,17.6c-1.2,10.6,5.9,22.4,5.9,22.4l6.4-5.2c0,0-8.7-10.4-7-21.2
		C167.9,84,171,81.1,171,81.1"/>
	<path class="st0" d="M206.8,58.9c0,0-7.9,7.8-8.3,17.6c-0.4,9.8,0,11.2,0,11.2l5.1-2.6C203.5,85.1,201.5,65.8,206.8,58.9"/>
	<path class="st1" d="M234.5,14.6c-15.5,0.2-30.9,2.5-45.8,6.9c-14.8,4.5-29.1,11-42.1,19.4c-7.3,4.7-14.2,10.1-20.6,16
		c-0.5,0.4,0.4,1.1,0.8,0.7C150.1,37.6,179,24,209.1,19c8.5-1.4,17.1-2.2,25.7-2.2C236.4,16.8,236,14.6,234.5,14.6"/>
	<path class="st1" d="M275.6,0c-1.3,0.4-2.5,0.8-3.8,1.1c-0.2,0.1-0.4,0.2-0.7,0.2c-1.6,0.6-3.2,1.2-4.8,1.9c-1.5,0.6-3,1.2-4.5,1.8
		c-1.1,0.4-2.2,0.8-3.3,1.2c-2.6,1-5.1,2.1-7.7,3.1c-4.7,1.9-9.5,3.8-14.2,5.9c-0.7-0.4-1.5-0.6-2.1-0.1c-0.1,0.1-0.1,0.1-0.1,0.2
		c0.2,0.5,0.6,0.9,1,1.3c0.1,0.1,0.1,0.2,0.2,0.2c0.3,0.3,0.5,0.5,0.7,0.8c0.3,0.5,0.6,1,0.7,1.6c0.1,0.4,0.1,0.9,0.1,1.3
		c-0.1,0.1-0.2,0.2-0.4,0.3c-2.6,2.7-5.5,5-8.4,7.4c-2.8,2.3-5.7,4.6-8.6,6.8c-2.9,2.2-5.9,4.3-8.9,6.3c0.3-1.8,0.1-3.8-0.2-5.5
		c-0.4-2.7-1.5-5.2-3-7.5c-1.5-2.2-3.5-4-5.8-5.4c-2-1.2-4.7-2.4-7.1-2c-0.2,0-0.2,0.2,0,0.3c0.1,0,0.1,0.1,0.2,0.1
		c-0.6-0.1-1.3-0.1-1.9,0c-0.1,0-0.1,0.1,0,0.1c1,0,2.1,0.2,3.1,0.4c1.9,0.7,3.8,1.2,5.5,2.2c2,1.2,3.8,2.8,5.1,4.7
		c0.1,0.1,0.1,0.2,0.2,0.3c-0.7,0-1.4-0.1-2.1-0.1c0-0.1,0-0.2,0-0.3c0,0,0,0,0,0c0,0.1,0,0.2,0,0.3c-1.3,0-2.5,0-3.8,0.1
		c-0.1-0.6-0.2-1.3-0.3-1.9c0,0,0,0,0,0c0.1,0.6,0.2,1.3,0.2,1.9c-0.7,0-1.5,0.1-2.2,0.1c0,0,0,0,0,0c0.7,0,1.5,0.1,2.2,0.1
		c0.1,1.3,0.2,2.7,0.2,4c-0.9-0.1-1.8-0.2-2.7-0.3c0,0,0,0,0,0c0.9,0.1,1.8,0.2,2.7,0.4c0,1.5-0.1,2.9-0.2,4.4
		c-1.5,0-2.9-0.1-4.3-0.3c0.3-3.3,0.3-6.5,0-9.7c0,0,0,0,0,0c0.3,3.3,0.2,6.5-0.3,9.7c-1.4-0.1-2.8-0.3-4.3-0.6
		c0.1-2.3,0.1-4.6-0.1-6.9c0,0,0,0,0,0c0.1,2.3,0.1,4.6-0.1,6.8c-0.8-0.1-1.6-0.3-2.4-0.5c0,0,0,0,0,0c0.8,0.2,1.6,0.4,2.4,0.6
		c-0.1,1.4-0.3,2.8-0.5,4.1c-1.2-0.3-2.5-0.7-3.7-1.1c0.4-2.5,0.7-5.1,0.9-7.7c0,0,0,0,0,0c-0.4,4.7-1.4,9.3-2.7,13.9
		c-1.1-0.2-2.3-0.4-3.4-0.6c0.9-4.4,1.3-8.8,1.2-13.3c0,0,0,0,0,0c0.1,4.5-0.4,8.9-1.3,13.3c-0.4-0.1-0.9-0.2-1.3-0.3c0,0,0,0,0,0
		c0.4,0.1,0.9,0.2,1.3,0.3c-0.3,1.4-0.6,2.7-1,4c-1.1-0.2-2.3-0.4-3.4-0.6c0.4-2.6,0.6-5.2,0.7-7.7c0,0,0,0,0,0
		c-0.2,2.6-0.5,5.1-1,7.6c-0.8-0.2-1.7-0.4-2.5-0.6c0,0,0,0,0,0c0.8,0.2,1.6,0.5,2.5,0.7c-0.2,1.1-0.4,2.2-0.7,3.3
		c-0.4-0.1-0.7-0.1-1.1-0.2c0,0,0,0,0,0.1c0.4,0.1,0.7,0.2,1.1,0.3c-0.3,1.2-0.6,2.4-0.9,3.6c0,0-0.1,0-0.1,0c0.1-3.2-1-6.7-2.6-9.4
		c-0.4-0.8-0.9-1.6-1.5-2.3c-1.9-2.5-4.8-4.7-7.9-6c-1.4-0.7-2.9-1.2-4.4-1.5c0,0,0,0,0,0c-0.6-0.2-1.3-0.3-2-0.3
		c-0.9-0.1-1.9-0.2-2.8-0.1c0,0,0,0.1,0,0.1c0.5,0,1,0.1,1.5,0.1c-1.1,0.2-2.1,0.6-2.8,1.2c0,0,0,0.1,0.1,0.1c0.7,0,1.3-0.2,2-0.2
		c0,0.1,0.1,0.2,0.1,0.2c2.9,0.2,5.8,0.5,8.5,1.7c2.7,1.2,5.2,3.2,6.9,5.6c1.7,2.4,2.6,5.3,2.9,8.2c0.2,1.5,0.1,3.1-0.2,4.6
		c-0.2,1.4-0.8,2.8-1.2,4.1c0,0.1,0,0.1,0,0.2c-3.3,1.4-6.6,2.8-10,4c-5.5,2.1-11,3.8-16.6,5.5c0.4-1,0.7-2,1.1-3.1c0,0,0-0.1-0.1,0
		c-0.7,1.1-1.3,2.2-1.8,3.4c-0.8,0.2-1.5,0.5-2.3,0.7c1.1-1.9,1.4-4.5,1.3-6.5c-0.2-3-1.4-5.8-3.6-7.9c0,0-0.1,0,0,0
		c1.9,2.2,2.9,4.9,3,7.8c0.1,2.7-0.8,4.8-2,7.1c-0.8,0.2-1.5,0.5-2.3,0.7c-0.6,0.2-0.3,1.1,0.3,1c1.7-0.3,3.4-0.7,5.1-1.1
		c0.1,0.2,0.6,0.3,0.7,0c0-0.1,0.1-0.1,0.1-0.2c12.3-3,24.3-7.5,35.8-12.8c13.4-6.2,26.1-13.7,38-22.4c3.3-2.4,6.6-5,9.8-7.6
		c3.3-2.7,6.5-5.7,9.8-8.4c0.3-0.3,0.4-0.5,0.5-0.8c0.1-0.1,0.2-0.2,0.2-0.3c0.3-0.7,0.3-1.5,0.1-2.2c4.4-2.1,8.7-4.4,13.1-6.6
		c4.1-2.1,8.5-4,12.4-6.5c2.1-1,4.1-2.2,6.1-3.3c0.4-0.2,0.8-0.4,1.2-0.6c0.9-0.5,1.9-1,2.8-1.5c0.1-0.1,0.1-0.1,0-0.2
		c0.1-0.1,0.3-0.1,0.4-0.2C275.7,0.1,275.7,0.1,275.6,0 M209.7,35.8c0.1,0.6,0.2,1.3,0.2,1.9c-0.5,0-1,0.1-1.5,0.1
		c0.1-1.1,0.1-2.1,0.1-3.2c0.3,0,0.7,0.1,1,0.1C209.6,35.1,209.7,35.4,209.7,35.8 M208.1,37.8c-1.1,0.1-2.1,0.1-3.2,0.1
		c0.1-1.3,0.2-2.5,0.2-3.8c1.1,0.2,2.1,0.3,3.2,0.4C208.3,35.7,208.3,36.8,208.1,37.8 M207.3,29.5c0.9,1.5,1.6,3.1,2.1,4.8
		c-0.3,0-0.6-0.1-0.9-0.1c0-0.9-0.1-1.7-0.3-2.6c0,0,0,0,0,0c0.1,0.9,0.1,1.7,0.1,2.6c-1.1-0.1-2.1-0.2-3.2-0.3c0-1.4,0-2.8-0.1-4.2
		C205.8,29.6,206.6,29.6,207.3,29.5 M201.2,29.4c1.3,0.1,2.5,0.1,3.8,0.1c0.1,1.4,0.1,2.8,0,4.2c-1.2-0.1-2.3-0.2-3.5-0.3
		C201.4,32.1,201.3,30.8,201.2,29.4 M201.5,33.6c1.2,0.2,2.3,0.4,3.5,0.5c-0.1,1.3-0.2,2.6-0.4,3.8c-1.1,0-2.2,0-3.2,0
		C201.5,36.5,201.5,35,201.5,33.6 M201.3,38.4c1.1,0.1,2.1,0.1,3.2,0.1c0,0.2,0,0.4-0.1,0.5c-0.2,1.3-0.5,2.6-0.8,3.9
		c-1,0-2-0.1-3-0.1C200.9,41.3,201.2,39.9,201.3,38.4 M196.7,38c1.4,0.2,2.9,0.3,4.3,0.4c-0.2,1.5-0.4,2.9-0.7,4.4
		c-1.4-0.1-2.8-0.3-4.2-0.5C196.4,40.8,196.6,39.4,196.7,38 M196,42.5c1.4,0.3,2.8,0.5,4.2,0.6c-0.3,1.3-0.6,2.5-1.1,3.8
		c-1.4,0.1-2.8,0.1-4.3,0.1C195.4,45.5,195.7,44,196,42.5 M196.4,37.9c-0.2,1.4-0.5,2.8-0.8,4.2c-1.3-0.2-2.6-0.5-3.9-0.8
		c0.2-1.4,0.3-2.8,0.4-4.2C193.6,37.5,195,37.7,196.4,37.9 M191.7,41.5c1.3,0.4,2.5,0.7,3.8,0.9c-0.4,1.5-0.8,3.1-1.3,4.6
		c-1.2,0-2.4-0.1-3.6-0.2C191.1,45.1,191.5,43.3,191.7,41.5 M194.2,47.3c-0.3,0.9-0.6,1.8-1,2.7c-1.2,0.1-2.4,0.2-3.6,0.2
		c0.4-1.1,0.7-2.1,1-3.2C191.8,47.2,193,47.3,194.2,47.3 M187.8,40.2c1.2,0.5,2.4,0.9,3.7,1.2c-0.3,1.8-0.7,3.6-1.2,5.4
		c-1.3-0.1-2.6-0.2-3.8-0.4C187,44.3,187.4,42.3,187.8,40.2 M186.2,47c0-0.2,0.1-0.3,0.1-0.5c1.3,0.2,2.5,0.4,3.8,0.5
		c-0.3,1.1-0.7,2.2-1,3.3c-0.1,0-0.1,0-0.2,0c-1.2,0-2.4,0-3.7-0.1C185.6,49.1,185.9,48,186.2,47 M189,50.6
		c-0.3,0.9-0.7,1.8-1.1,2.7c-0.6,0-1.3,0.1-1.9,0.1c-0.7,0-1.3,0-1.9-0.1c0.4-1,0.7-1.9,1-2.9C186.5,50.5,187.7,50.5,189,50.6
		 M182.6,45.7c1.1,0.3,2.3,0.5,3.4,0.7c-0.1,0.2-0.1,0.4-0.2,0.6c-0.3,1-0.7,2-1,3c-1.1-0.1-2.1-0.2-3.2-0.4
		C182,48.4,182.3,47.1,182.6,45.7 M181.5,49.9c1,0.2,2.1,0.3,3.1,0.4c-0.4,1-0.8,2-1.2,2.9c-1-0.1-1.9-0.2-2.9-0.3
		C180.9,51.9,181.3,50.9,181.5,49.9 M178,49.1c1.1,0.3,2.2,0.5,3.4,0.7c-0.3,1-0.6,2-1,3.1c-1-0.1-1.9-0.3-2.9-0.5
		C177.7,51.3,177.8,50.2,178,49.1 M177.4,52.6c0.9,0.3,1.9,0.5,2.8,0.6c-0.4,1.2-0.9,2.3-1.4,3.5c-0.8-0.1-1.5-0.3-2.3-0.5
		C176.9,55,177.2,53.8,177.4,52.6 M174.5,61.5c0.1-0.2,0.2-0.4,0.2-0.6c0.2-0.3,0.3-0.5,0.4-0.8c0.1,0,0.2,0,0.2,0
		c0.5-1.2,0.9-2.5,1.2-3.8c0.7,0.2,1.5,0.4,2.2,0.6c-0.5,1.2-1.1,2.3-1.7,3.4C176.2,60.8,175.4,61.1,174.5,61.5 M181.1,58.5
		c-1.2,0.6-2.3,1.1-3.5,1.6c0.5-1,1-2.1,1.5-3.2c0.9,0.2,1.7,0.3,2.6,0.3C181.4,57.7,181.3,58.1,181.1,58.5 M179.1,56.8
		c0.5-1.2,0.9-2.3,1.4-3.5c0.9,0.2,1.9,0.3,2.8,0.3c-0.5,1.1-1,2.3-1.5,3.4C180.9,57,180,56.9,179.1,56.8 M182,58.1
		c0.1-0.2,0.3-0.5,0.4-0.7c0.4,0,0.8,0,1.2,0C183,57.6,182.5,57.8,182,58.1 M184.3,56.9c-0.6,0-1.2,0.1-1.8,0.1
		c0.5-1.1,1-2.2,1.5-3.4c1.3,0.1,2.5,0.1,3.8,0c-0.3,0.7-0.6,1.3-0.9,2C186,56.1,185.2,56.5,184.3,56.9 M187.5,55.3
		c0.3-0.6,0.5-1.1,0.8-1.7c1-0.1,2-0.2,3-0.3C190,54,188.8,54.7,187.5,55.3 M192.1,52.8c-1.2,0.2-2.4,0.3-3.6,0.4
		c0.4-0.9,0.7-1.8,1-2.7c1.2,0,2.4,0,3.5-0.1C192.7,51.3,192.4,52.1,192.1,52.8 M192.8,52.5c0.3-0.7,0.6-1.4,0.9-2.1
		c1.2-0.1,2.4-0.3,3.6-0.5C195.8,50.8,194.3,51.7,192.8,52.5 M193.9,50c0.3-0.9,0.7-1.7,0.9-2.6c1.4,0,2.8,0,4.2,0
		c-0.2,0.7-0.5,1.3-0.7,2C196.9,49.6,195.4,49.8,193.9,50 M201.8,47.4c-1,0.6-2,1.2-3.1,1.8c0.2-0.6,0.5-1.2,0.7-1.8
		c0.9,0,1.9-0.1,2.8-0.2C202,47.2,201.9,47.3,201.8,47.4 M199.5,46.9c0.4-1.2,0.7-2.5,1-3.7c1,0.1,1.9,0.1,2.9,0.2
		c-0.3,1.1-0.6,2.2-1,3.3C201.5,46.8,200.5,46.8,199.5,46.9 M206.6,44.3c-1.2,0.8-2.4,1.5-3.6,2.2c0.4-1.1,0.7-2.1,1-3.2
		c1,0,1.9,0,2.9,0C206.8,43.7,206.7,44,206.6,44.3 M204.1,42.9c0.3-1.5,0.6-3,0.8-4.5c1.1,0,2.1-0.1,3.2-0.1c-0.2,1.5-0.6,3.1-1,4.5
		C206.1,42.9,205.1,42.9,204.1,42.9 M207.2,43.9c0.1-0.2,0.1-0.4,0.2-0.7c0.3,0,0.6,0,0.9-0.1C207.9,43.5,207.6,43.7,207.2,43.9
		 M209.6,42.4c-0.2,0.1-0.4,0.3-0.6,0.4c-0.5,0-1,0.1-1.5,0.1c0.4-1.5,0.7-3,0.9-4.6c0.5,0,1.1-0.1,1.6-0.2c0,0.6,0,1.1,0,1.7
		C209.9,40.7,209.7,41.5,209.6,42.4 M264.1,5.6c-4.3,1.6-8.5,3.9-12.6,5.9c-4.2,2-8.4,4-12.6,6.1c-0.2-0.4-0.5-0.8-0.7-1.1
		c-0.1-0.1-0.2-0.2-0.2-0.3c4.5-1.9,8.9-3.9,13.3-5.9c2.4-1.1,4.9-2.2,7.3-3.3c1.7-0.8,3.4-1.7,5.1-2.5c1.1-0.4,2.1-0.9,3.2-1.3
		c0.5-0.2,1-0.4,1.4-0.6c1.9-0.6,3.8-1.3,5.7-2C270.8,2.4,267.4,3.9,264.1,5.6"/>
	<path class="st1" d="M141.5,44.2c-3.4,3.8-8,6-13.1,6.8c-5.8,0.9-11.6-0.4-17.2-1.9c-11.3-3-22.8-6.8-34.5-3.9
		c-5.3,1.3-10.1,3.9-13.9,7.9c-0.1,0.1,0.1,0.2,0.1,0.1c8.5-8.3,21.3-8.7,32.2-6.5c11.3,2.3,22.6,8.1,34.4,5.8
		c5-0.9,9.9-3.3,12.8-7.7C142.7,44.3,141.9,43.8,141.5,44.2"/>
	<path class="st1" d="M145.5,67.6c-3.1,1.3-6,3.2-8.7,5.2c-1.9,1.7-3.6,3.5-5.2,5.3c-6,6.6-11.2,14.1-18.5,19.3
		c-4.2,3-8.8,4.7-13.9,5.4c-0.1,0-0.1,0.2,0,0.2c8.4,0.5,15.9-5.3,21.7-10.9c6.5-6.2,11.6-13.8,18.6-19.6c3.9-3.2,8.1-5.4,13-6.6
		C150.1,66.2,147.7,66.7,145.5,67.6"/>
	<path class="st1" d="M94.5,93.6c-2-2.4-4.6-5.1-7.4-6.5c-0.9-0.5-1.9,0.9-1,1.5c1.2,0.8,2.6,1.5,3.8,2.3c1.3,1,2.5,2.1,3.7,3.3
		c2.1,2.3,3.9,5,5.3,7.9c0,0.1,0.1,0,0.1,0C98.1,99,96.6,96.2,94.5,93.6"/>
	<path class="st1" d="M79.7,74.8c-1.9-4.1-4.3-8-7.1-11.5c-2.7-3.4-5.8-7.2-9.4-9.5c-0.1,0-0.2,0-0.1,0.1c1.3,1.8,3,3.4,4.4,5.1
		c1.3,1.6,2.6,3.3,3.8,5c2.5,3.7,4.7,7.5,6.6,11.6C78.3,76.6,80.2,76,79.7,74.8"/>
	<path class="st1" d="M139.2,72.4c-3.8,1.5-7.1,5.3-9.6,8.4c-2.9,3.5-5.4,7.4-7.9,11.3c-5,7.9-10.2,16.3-18.6,20.9
		c-4.5,2.5-9.4,3.3-14.5,2.8c-0.2-3.7-0.7-7.5-1.1-11.2c-0.4-3.9-0.4-8.2-1.5-12c0-0.1-0.2-0.1-0.2,0c-0.4,3.9,0.2,8,0.4,11.9
		c0.3,4.1,0.4,8.3,0.8,12.4c0.1,0.9,1.5,0.8,1.5-0.1c8.1,2.5,17-2.5,22.7-8.1c7.1-7,11.4-16.1,17.3-24c1.6-2.1,3.3-4.2,5.2-6
		c1.9-1.9,4.2-3.3,6.2-5.1C140.6,72.9,139.7,72.2,139.2,72.4"/>
	<path class="st1" d="M73.2,79.8c-1.2-2.6-4-4.8-6.4-6.2c-2.6-1.6-5.6-2.5-8.6-2.9c-1-0.1-1.2,1.3-0.2,1.4c3,0.3,5.8,1.3,8.4,2.8
		c2.5,1.4,4.2,3.5,6.4,5.3C72.9,80.4,73.3,80.1,73.2,79.8"/>
	<path class="st1" d="M69.7,62.7c-2.4-0.3-5.1,0.8-7.1,2c-2.2,1.4-3.9,3.3-4.6,5.8c0,0,0,0.1,0.1,0c1.5-1.8,3.3-3.5,5.3-4.7
		c2.1-1.3,4.3-1.5,6.6-2.1C70.5,63.7,70.2,62.8,69.7,62.7"/>
	<path class="st1" d="M86.6,91.3c-0.9-0.9-2-1.6-3-2.5c-1.2-1-2.2-2.2-3.2-3.4C79.3,84,74.7,78.1,78,77c2.6-0.9,5.1,2.4,6.2,4.3
		c1.4,2.5,1.6,5.3,1.7,8.1c0,0.1,0.1,0.1,0.2,0c1.5-3.2,0.4-7.1-1.4-9.9c-1.5-2.2-4.3-4.9-7.2-3.9c-3.9,1.3-1.2,6.2,0.2,8.4
		c1,1.6,2.2,3.2,3.5,4.5c1.3,1.4,2.9,2.9,4.6,3.7C86.3,92.6,87.2,91.8,86.6,91.3"/>
	<path class="st1" d="M130.3,61.6c-2.1-0.1-4.3,0.4-6.4,0.7c-2,0.3-4.1,0.7-6.1,1.1c-4.1,0.8-8.2,1.8-12.3,2.9
		c-8.3,2.3-16.5,5.3-24.2,9.2c-0.1,0,0,0.1,0.1,0.1c7.9-3.1,15.9-6,24.1-8.1c4.1-1.1,8.3-2,12.5-2.8c2-0.4,4.1-0.7,6.1-1
		c1-0.1,2-0.2,3.1-0.3c-1.2,0.9-2.3,1.9-3.5,2.7c-1.6,1.2-3.2,2.3-4.8,3.5c-3.3,2.3-6.7,4.5-10.1,6.5c-7,4.2-14.3,7.9-21.6,11.4
		c-0.1,0,0,0.1,0,0.1c7.7-2.8,15-6.4,22.1-10.5c3.5-2.1,7-4.3,10.5-6.5c1.7-1.1,3.4-2.3,5.1-3.5c1.6-1.1,3.5-2.3,4.8-3.7
		c0.1-0.1,0.2-0.3,0.2-0.4c0.2,0,0.4-0.1,0.6-0.2C131.1,62.6,130.9,61.6,130.3,61.6"/>
	<path class="st1" d="M225.2,21.4c-2.1-2.6-5.5-4.2-8.8-4.1c-0.1,0-0.1,0.1,0,0.1c3.1,0.7,5.9,2.4,7.8,5c1.9,2.7,2.1,5.6,1.6,8.8
		c-0.2,1.2,1.7,1.4,2,0.3C228.6,28.1,227.3,24,225.2,21.4"/>
	<path class="st1" d="M142.8,56.7c-2.1-2.7-5.5-5.3-9-5.7c-0.1,0-0.2,0.1,0,0.2c1.6,0.7,3.2,1.2,4.7,2.2c1.5,1,2.9,2.2,4,3.6
		c1.1,1.3,2,2.8,2.7,4.4c0.7,1.7,0.8,3.4,1.1,5.2c0,0.3,0.5,0.3,0.5,0C146.8,63.1,144.9,59.3,142.8,56.7"/>
	<path class="st1" d="M139.9,56.8c-1.9-2.4-4.8-3.7-7.8-4c0,0,0,0,0,0c3,0.5,5.5,2.1,7.5,4.2C139.7,57.2,140.1,57,139.9,56.8"/>
	<path class="st1" d="M81.6,74.6c-1-4.6-4-9.2-7-12.7c-3.1-3.7-7.1-7-11.5-9.1c-0.4-0.2-0.9,0.5-0.5,0.7c4.3,2.3,8.1,5.1,11.4,8.8
		c1.6,1.9,3.1,3.9,4.4,6c1.2,2.1,2,4.2,3,6.4C81.5,74.7,81.7,74.7,81.6,74.6"/>
	<path class="st1" d="M75.9,80.6c-0.3-0.2-0.6-0.2-1-0.2c-0.4-0.1-0.7-0.1-1.1-0.2c0,0,0,0,0,0c0.6,0.3,1.3,0.7,1.9,0.8
		C76.1,81,76.1,80.7,75.9,80.6"/>
	<path class="st1" d="M58.9,68.7c-0.1,0.2-0.3,0.5-0.4,0.7c0,0.1-0.1,0.2-0.1,0.3c3.2,0,6.1,0.4,9,2c3.2,1.7,5.3,4.2,7.4,7.1
		c0,0.1,0.1,0,0.1-0.1C72.8,72.7,65.2,68.3,58.9,68.7"/>
	<path class="st1" d="M99.2,102.6c-0.7-2.7-3-5.3-5-7.1c-2.1-1.9-4.6-3.3-7.3-4c0,0,0,0,0,0.1c2.6,1.2,4.9,2.7,7,4.7
		c0.9,0.9,1.7,1.8,2.4,2.8c0.9,1.2,1.4,2.6,2.2,3.8C98.6,103.1,99.4,103.1,99.2,102.6"/>
	<path class="st1" d="M82.8,91.8C82.8,91.8,82.8,91.8,82.8,91.8C82.8,91.8,82.8,91.8,82.8,91.8"/>
	<path class="st1" d="M86.6,110.2c-0.4-2.1-0.7-4.3-1.1-6.4c-0.3-2-0.7-4.1-1-6.1c-0.2-1.1-0.4-2.2-0.6-3.4c-0.2-1-0.2-1.9-0.7-2.8
		c0,0,0,0,0,0c-0.2,0.9,0,1.9,0.2,2.8c0.1,1,0.3,2.1,0.4,3.1c0.3,2.1,0.6,4.3,0.9,6.4c0.3,2.1,0.6,4.1,0.9,6.2c0.3,2,0.4,4.3,1,6.3
		c0.1,0.4,0.9,0.3,0.9-0.1C87.6,114.2,87,112.1,86.6,110.2"/>
	<path class="st1" d="M64.7,55c-0.1-0.1-0.2-0.2-0.2-0.4c0,0,0,0,0,0c-7.8,0.1-15.6-0.2-23.3-1.2c-6.9-0.9-13.6-2.2-20.3-4.1
		C14,47.3,7.3,44.8,0.7,42c-0.5-0.2-1,0.4-0.5,0.7c11.2,5.4,23.6,8.8,35.9,10.8c9.5,1.5,19.2,2.1,28.8,1.8
		C64.9,55.2,64.8,55.1,64.7,55"/>
	<path class="st1" d="M189.7,20.9c-23.8,9.5-47.6,19.3-72.4,25.8c-3.1,0.8-6.3,1.6-9.4,2.3c0.3,0,0.5,0,0.8,0c0.3,0,0.5,0.1,0.7,0.2
		c13.6-3.2,26.9-7.4,40.1-12.2C163,32.1,176.4,26.6,189.7,20.9C189.8,21,189.8,20.9,189.7,20.9"/>
	<path class="st1" d="M195.7,35.9c-23.4,8-45.8,19-66.7,32.1c-21,13.1-40.6,28.4-58.3,45.6c-9.9,9.6-19.3,19.8-27.8,30.6
		c-0.1,0.1,0.1,0.1,0.1,0.1c15.8-18.9,33.3-36.3,52.6-51.7c19.2-15.3,40.1-28.6,62-39.6c12.4-6.3,25.3-11.7,38.3-16.5
		C196.3,36.3,196.1,35.8,195.7,35.9"/>
	<path class="st1" d="M189.9,27.6c-19.6,9.3-39.6,17.8-59.9,25.6C109.7,61,89.1,68.1,68.3,74.3c-11.7,3.5-23.5,6.8-35.3,9.9
		c-0.5,0.1-0.2,0.8,0.2,0.6c21.1-5.3,42-11.6,62.7-18.7c20.5-7,40.7-14.7,60.7-23.2c11.3-4.8,22.5-9.9,33.6-15.2
		C190.4,27.8,190.1,27.5,189.9,27.6"/>
	<path class="st1" d="M82.6,94.5c-9.3,3.3-18.5,7.5-27.3,11.8c-9,4.4-17.9,9.3-26.5,14.5c0,0,0,0.1,0,0.1c8.6-5.1,17.5-9.7,26.5-14
		c4.5-2.1,9.1-4.2,13.7-6.1c4.6-1.9,9.3-3.6,14-5.4C83.6,95.2,83.1,94.3,82.6,94.5"/>
	<path class="st1" d="M138.6,82.8c-14.2,9.3-27.3,20.1-39.1,32.4c-11.8,12.3-22.1,26-30.8,40.7c-4.8,8.2-9.2,16.7-12.9,25.5
		c-0.3,0.7,1,1,1.2,0.3c6.6-15.5,14.8-30.3,24.8-44c9.9-13.6,21.3-26.1,33.9-37.2c7.2-6.3,14.9-12.1,22.9-17.4
		C138.9,82.9,138.7,82.7,138.6,82.8"/>
	<path class="st1" d="M197.6,50.5c-4.7,2-9.2,4.8-13.7,7.2c-4.6,2.4-9.1,4.8-13.7,7.3c-9.1,4.9-18.2,9.7-27.2,14.8
		c-0.1,0,0,0.1,0,0.1c9.2-4.6,18.4-9.4,27.5-14.2c4.6-2.4,9.1-4.8,13.7-7.2c2.2-1.2,4.4-2.3,6.6-3.5c2.3-1.2,4.8-2.4,7-3.8
		C198.3,50.8,198,50.3,197.6,50.5"/>
	<path class="st1" d="M72.5,82.7C57.5,89,42.3,95.1,27.3,101.5c-0.1,0.1,0,0.2,0.1,0.2c15.3-5.9,30.4-12.1,45.6-18.2
		C73.7,83.3,73.1,82.5,72.5,82.7"/>
	<path class="st1" d="M64.9,59.2c-4.2,1-8.3,2.6-12.5,3.7c-4.3,1.1-8.6,2-13,2.8c-8.8,1.6-17.7,2.5-26.6,2.9c-0.1,0-0.1,0.1,0,0.1
		c8.9,0.1,17.8-0.7,26.6-2.1c4.5-0.7,8.9-1.7,13.3-2.8c4.2-1.1,8.6-2,12.6-3.8C65.9,59.8,65.5,59.1,64.9,59.2"/>
	<path class="st1" d="M190.7,17.9c-20.5,7-40.9,14.4-61.2,21.8c-5.8,2.1-11.7,4.3-17.5,6.4c0,0,0,0.1,0,0.1
		c20.5-6.9,41-14.1,61.4-21.3c5.8-2.1,11.7-4.1,17.5-6.2C191.5,18.5,191.2,17.7,190.7,17.9"/>
	<path class="st1" d="M212.2,47.7C200.4,53,189,59.1,177.7,65.3c-11.2,6.2-22.2,12.8-33,19.6c-6.2,3.9-12.3,7.9-18.3,12.1
		c-0.3,0.2,0,0.5,0.2,0.4c21.5-14.1,43.7-27.2,66.5-39.1c6.5-3.4,13-6.6,19.5-9.9C213.2,48.2,212.7,47.5,212.2,47.7"/>
	<path class="st1" d="M116.9,105.8c-7,5.9-13.3,12.9-19.1,20c-6,7.3-11.4,15.1-16.2,23.2c-2.6,4.4-5.2,9-7.3,13.7c0,0,0.1,0.1,0.1,0
		c4.5-8,9-16,14.3-23.6c5.4-7.6,11.2-14.9,17.6-21.7c3.6-3.8,7.4-7.4,11.1-11.2C117.8,106,117.2,105.6,116.9,105.8"/>
	<path class="st1" d="M85.2,114.4c-6.3,5.8-11.9,12.5-17.2,19.3c-5.4,6.9-10.2,14.2-14.5,21.8c-0.1,0.2,0.2,0.4,0.4,0.2
		c4.4-7.4,9.3-14.5,14.6-21.2c5.4-6.9,11.4-13.2,17.5-19.4C86.3,114.5,85.6,114,85.2,114.4"/>
	<path class="st1" d="M81.4,98.9c-17.2,11.1-33.4,23.8-48,38.2c-0.1,0.1,0,0.1,0.1,0.1c15.1-13.8,31.2-26.4,48.5-37.4
		C82.7,99.4,82,98.5,81.4,98.9"/>
	<path class="st1" d="M79.2,86.6c-15.8,8-31.7,16-47.4,24.2c-0.1,0,0,0.1,0.1,0.1c16.1-7.6,32-15.4,48-23.2
		C80.6,87.3,79.9,86.3,79.2,86.6"/>
	<path class="st1" d="M65.1,56.8c-7.5,1.7-15,2.9-22.7,3.3c-7.5,0.5-14.9-0.1-22.3,0c-0.1,0-0.1,0.1,0,0.2
		c7.3,1.5,15.3,1.3,22.7,0.9c7.6-0.4,15.2-1.5,22.7-3C66.5,58,66,56.6,65.1,56.8"/>
	<path class="st1" d="M242.9,5.8c-8,1.9-16,4.2-24,6.1c-8,1.8-16.2,3.3-24.1,5.4c-0.1,0-0.1,0.1,0,0.1c8.1-0.8,16.1-2.6,24-4.4
		c8.1-1.9,16.4-3.8,24.3-6.4C243.6,6.3,243.4,5.6,242.9,5.8"/>
	<path class="st1" d="M249.9,19.1c-2.9,1.6-5.6,3.9-8.3,5.9c-2.9,2.2-5.8,4.3-8.7,6.5c-5.7,4.4-11.4,8.8-16.7,13.7
		c-0.3,0.2,0.1,0.5,0.4,0.3c5.6-4.3,11.1-8.8,16.7-13.1c2.7-2.1,5.5-4.2,8.3-6.3c2.9-2.1,6.1-3.9,8.8-6.3
		C250.9,19.4,250.3,18.8,249.9,19.1"/>
	<path class="st1" d="M136,21.6c-6.3-1.6-12.1-4.1-17.4-7.8C113.2,10,109,5.2,105.1,0c0,0-0.1,0-0.1,0c5,10.2,15.5,18.2,26.4,21.7
		c-13.8-1-26.4-6.4-36.8-15.9c-0.1-0.1-0.4,0.1-0.2,0.2c10.3,10.5,25.6,16.9,40.3,16.6c0.3,0.1,0.5,0.1,0.8,0.2
		C136.5,23.1,137,21.8,136,21.6"/>
	<path class="st1" d="M103.9,0.4c-1.8,0.6-3.5,1.5-5.2,2.4c-1.6,0.8-3.5,1.5-4.8,2.8c0,0,0,0.1,0,0c1.6-0.2,3.1-1,4.6-1.7
		c1.9-0.9,4-1.6,5.8-2.7C104.7,0.9,104.4,0.2,103.9,0.4"/>
	<path class="st1" d="M173.3,115.1C173.3,115.1,173.3,115.1,173.3,115.1c-1.7-2.4-3.5-4.6-4.6-7.4c-1.1-2.7-1.9-5.6-2.1-8.5
		c-0.5-6.3,1.4-12,4.5-17.3c0.4-0.4,0.7-0.7,1.1-1c0.3-0.3-0.1-0.9-0.5-0.6c-0.3,0.2-0.6,0.4-0.9,0.6c-0.2,0-0.5,0-0.6,0.2
		c-0.2,0.2-0.3,0.4-0.5,0.6c-11.3,9.6-12,27.9-3.1,39.4c0.2,0.2,0.6,0,0.4-0.2c0,0,0,0,0-0.1c1.2-0.7,2.4-1.6,3.5-2.5
		c1.1-0.9,2.5-1.7,3.3-2.9C173.9,115.2,173.5,115,173.3,115.1 M169.9,117.9c-1.1,0.9-2.1,1.9-3,2.9c-4.5-6.2-6.6-14-5.4-21.6
		c0.8-5.1,2.9-9.4,5.9-13.2c-1.8,4.3-2.4,9.1-1.9,13.6c0.6,5.5,3.1,12,7.5,15.8C171.8,116,170.9,117,169.9,117.9"/>
	<path class="st1" d="M71.6,25.2c-10.5-1.3-19.7-6.8-25.3-16c0,0-0.1,0-0.1,0c3.1,6.1,8.4,11.1,14.7,14.1c-0.4-0.1-0.9-0.1-1.3-0.2
		c-2.6-0.5-5.1-1.2-7.6-1.9c-2.3-0.7-5.6-1.3-6.9-3.6c-1.7-2.8,0.5-5.2,1.3-7.9c0,0,0-0.1-0.1,0c-1.7,1.6-2.9,4.3-2.5,6.7
		c0.3,2.3,2,3.5,4,4.4c3,1.3,6.1,2.2,9.2,2.9c2.7,0.6,5.6,1.3,8.4,1.4c1.9,0.6,3.9,0.9,6,1.1C72,26.2,72.2,25.3,71.6,25.2"/>
	<path class="st1" d="M207.3,58.8c0.1-0.2-0.2-0.4-0.3-0.2c-6.9,7.6-10.7,18.3-9.3,28.5c0.1,0.5,0.9,0.7,1,0.1l0.4-1.2
		c0.1-0.3-0.2-0.5-0.5-0.5C198.2,75.8,200.9,66.4,207.3,58.8"/>
	<path class="st1" d="M203.8,71.8c0.4-4.4,1.8-8.3,3.3-12.4c0-0.1-0.1-0.1-0.1-0.1c-2.3,3.5-3.5,7.9-4.1,12.1
		c-0.3,2.2-0.4,4.4-0.3,6.7c0.1,2,0.1,4.4,1,6.2c0.2,0.4,1,0.2,1-0.2c0.1-1.9-0.6-4-0.7-5.9C203.6,76,203.6,73.9,203.8,71.8"/>
	<path class="st1" d="M201.9,85.3c-1.2,0.5-2.2,1.3-3.3,2.1c0,0,0,0.1,0,0.1c1.2-0.5,2.5-0.9,3.6-1.6
		C202.6,85.6,202.3,85.2,201.9,85.3"/>
	<path class="st1" d="M167.7,15.5c-3.4-0.3-6.9-0.1-10.4-0.2c-3.2,0-6.6-0.2-9.8,0.1c0.4-0.5,0.7-1.1,1.2-1.6
		c0.8-0.7,1.6-0.7,2.6-0.6c1.7,0.1,3.5,0.3,5.2,0.5c3.5,0.3,7,0.7,10.5,0.8c0.1,0,0.1-0.1,0-0.1c-4.5-0.7-9.2-1.1-13.7-1.6
		c-2.8-0.3-5.7-0.9-6.5,2.7c0,0,0,0,0,0.1c0,0,0,0,0,0c0,0,0,0,0,0c0,0,0,0,0,0c0,0.2,0.3,0.2,0.4,0.1c0,0,0,0,0,0
		c3.1,0.4,6.4,0.3,9.5,0.3c3.6,0.1,7.2,0.3,10.8,0.1C168,16,168,15.5,167.7,15.5"/>
	<path class="st1" d="M133.5,98.5c0-0.1-0.1-0.1-0.1-0.1c-3.4,5.1-5.6,10.9-6.5,17c-0.8,6-0.6,13.1,1.8,18.7
		c0.1,0.3,0.6,0.2,0.5-0.1c-1.4-6-2.5-11.7-1.8-17.9C128.2,109.9,130.3,103.9,133.5,98.5"/>
	<path class="st1" d="M130.2,99.3c-6.9,8.1-11.8,19.2-13.1,29.7c-0.1,0.4,0.8,0.5,0.8,0.1c1-5.3,2.2-10.4,4.2-15.4
		C124.3,108.6,127.1,103.9,130.2,99.3C130.3,99.3,130.2,99.3,130.2,99.3"/>
	<path class="st1" d="M128.3,137.8c-3-2.9-6.6-5.6-10-8c-0.1,0-0.2,0-0.1,0.1c3,2.9,6.2,6,9.6,8.4
		C128.2,138.5,128.7,138.1,128.3,137.8"/>
	<path class="st1" d="M103.4,30.7c-6-4-12.2-7.6-18.5-11.1c-1.8-1-4.1-2.1-6.1-1.2c-1.5,0.6-2.5,2.2-1.8,3.7
		c0.1,0.2,0.5,0.2,0.5-0.1c-0.2-1.7,1-3.1,2.6-3.3c1.4-0.2,2.8,0.7,4,1.3c2.1,1.2,4.1,2.4,6.2,3.6c3.4,2,6.7,3.9,10.2,5.8
		c-8.6-0.3-17-2.7-24-7.7c0,0-0.1,0,0,0c7.1,5.4,15.7,8.7,24.7,8.4c0.2,0,0.3-0.1,0.3-0.2c0.6,0.3,1.2,0.6,1.8,0.9
		C103.4,31.2,103.6,30.9,103.4,30.7"/>
	<path class="st1" d="M201.8,1.6c-3.3,1.1-6.5,2.2-9.8,3.3c-3,1-6.2,1.8-9.1,3.1c-0.3,0.1-0.1,0.5,0.2,0.4c3.2-0.9,6.3-2.2,9.4-3.4
		C195.6,3.9,198.7,2.7,201.8,1.6C201.8,1.6,201.8,1.6,201.8,1.6"/>
	<path class="st1" d="M202.4,2c-3.1,2.7-6.4,5.1-10.4,6.3c-3.9,1.2-7.6,1.1-11.6,0.9c-0.5,0-0.6,0.7-0.1,0.8
		c7.4,2.1,17.7-1.9,22.2-8C202.5,2,202.4,2,202.4,2"/>
</g>
</svg>
