<?xml version="1.0" encoding="utf-8"?>
<!-- Generator: Adobe Illustrator 23.0.3, SVG Export Plug-In . SVG Version: 6.00 Build 0)  -->
<svg version="1.1" id="Layer_1" xmlns="http://www.w3.org/2000/svg" xmlns:xlink="http://www.w3.org/1999/xlink" x="0px" y="0px"
	 viewBox="0 0 58.8 58.8" style="enable-background:new 0 0 58.8 58.8;" xml:space="preserve">
<style type="text/css">
	.st0{clip-path:url(#SVGID_2_);fill:#FFFFFF;}
	.st1{clip-path:url(#SVGID_2_);fill:none;stroke:#FFFFFF;stroke-width:0.8;stroke-miterlimit:10;}
</style>
<g>
	<defs>
		<rect id="SVGID_1_" y="0" width="58.8" height="58.8"/>
	</defs>
	<clipPath id="SVGID_2_">
		<use xlink:href="#SVGID_1_"  style="overflow:visible;"/>
	</clipPath>
	<path class="st0" d="M27.3,53.4c2.9-1.8,5.7-3.5,8.3-5.4c0.5-0.3,0.7-1.3,0.7-1.9c-0.1-3.3-0.2-6.6-0.4-9.9
		c-0.1-1.1,0.3-1.9,1.1-2.6c8.8-7.8,14.7-17.5,17.3-29.2c-0.6,0.1-1,0.3-1.5,0.4c-8.1,2-15.3,5.7-21.7,11.1
		c-0.6,0.5-1.3,0.9-2.2,0.6c-1.4-0.5-1.6-2.2-0.4-3.2c2-1.6,4.1-3.2,6.2-4.6c6.2-4.1,13-6.6,20.2-8.2c2-0.5,3.9,1.4,3.4,3.4
		C55.7,16.2,50,26.7,40.8,35.3c-0.8,0.7-1.2,1.4-1.1,2.5c0.2,2.6,0.2,5.3,0.4,7.9c0.2,2.6-0.8,4.5-3,5.9c-3.3,2-6.6,4.1-9.8,6.2
		c-1.9,1.2-3.2,0.5-3.4-1.8c-0.3-3.2-0.6-6.5-0.9-9.7c0-0.4-0.1-0.9-0.1-1.3c0-1.2,0.6-1.9,1.6-2c1.1-0.1,1.9,0.5,2,1.7
		c0.2,1.7,0.3,3.4,0.5,5.1C27,50.9,27.2,52.1,27.3,53.4"/>
	<path class="st1" d="M27.3,53.4c2.9-1.8,5.7-3.5,8.3-5.4c0.5-0.3,0.7-1.3,0.7-1.9c-0.1-3.3-0.2-6.6-0.4-9.9
		c-0.1-1.1,0.3-1.9,1.1-2.6c8.8-7.8,14.7-17.5,17.3-29.2c-0.6,0.1-1,0.3-1.5,0.4c-8.1,2-15.3,5.7-21.7,11.1
		c-0.6,0.5-1.3,0.9-2.2,0.6c-1.4-0.5-1.6-2.2-0.4-3.2c2-1.6,4.1-3.2,6.2-4.6c6.2-4.1,13-6.6,20.2-8.2c2-0.5,3.9,1.4,3.4,3.4
		C55.7,16.2,50,26.7,40.8,35.3c-0.8,0.7-1.2,1.4-1.1,2.5c0.2,2.6,0.2,5.3,0.4,7.9c0.2,2.6-0.8,4.5-3,5.9c-3.3,2-6.6,4.1-9.8,6.2
		c-1.9,1.2-3.2,0.5-3.4-1.8c-0.3-3.2-0.6-6.5-0.9-9.7c0-0.4-0.1-0.9-0.1-1.3c0-1.2,0.6-1.9,1.6-2c1.1-0.1,1.9,0.5,2,1.7
		c0.2,1.7,0.3,3.4,0.5,5.1C27,50.9,27.2,52.1,27.3,53.4z"/>
	<path class="st0" d="M5.4,31.5c2,0.2,3.9,0.4,5.8,0.6c0.8,0.1,1.5,0,2.2,0.3c0.8,0.3,1.7,0.6,2.3,1.1c1.3,1.1,2.5,2.4,3.7,3.6
		c0.9,1,1,2,0.2,2.8c-0.8,0.8-1.9,0.7-2.8-0.3c-0.3-0.3-0.6-0.6-0.9-1c-0.3,0.3-0.6,0.6-0.9,0.8c-2.9,2.9-5.8,5.8-8.7,8.7
		C5.8,48.8,5,49,4.1,48.6c-0.8-0.4-1.1-1.2-0.8-2c0.1-0.5,0.5-0.9,0.8-1.2c2.8-2.8,5.6-5.6,8.4-8.4c0.2-0.2,0.5-0.5,0.8-0.9
		c-2.1-0.2-4-0.4-5.9-0.6c-1.7-0.2-3.4-0.3-5.1-0.5c-1.8-0.2-2.5-1.6-1.5-3.1c2.2-3.5,4.4-7,6.6-10.4c1.2-1.8,2.9-2.7,5-2.7
		c3.5,0.1,7,0.3,10.5,0.5c1.4,0.1,2.2,0.8,2.1,2c-0.1,1.1-1,1.8-2.4,1.7c-3.3-0.2-6.7-0.3-10-0.5c-1-0.1-1.8,0.3-2.3,1.2
		C8.8,26.2,7.1,28.8,5.4,31.5"/>
	<path class="st1" d="M5.4,31.5c2,0.2,3.9,0.4,5.8,0.6c0.8,0.1,1.5,0,2.2,0.3c0.8,0.3,1.7,0.6,2.3,1.1c1.3,1.1,2.5,2.4,3.7,3.6
		c0.9,1,1,2,0.2,2.8c-0.8,0.8-1.9,0.7-2.8-0.3c-0.3-0.3-0.6-0.6-0.9-1c-0.3,0.3-0.6,0.6-0.9,0.8c-2.9,2.9-5.8,5.8-8.7,8.7
		C5.8,48.8,5,49,4.1,48.6c-0.8-0.4-1.1-1.2-0.8-2c0.1-0.5,0.5-0.9,0.8-1.2c2.8-2.8,5.6-5.6,8.4-8.4c0.2-0.2,0.5-0.5,0.8-0.9
		c-2.1-0.2-4-0.4-5.9-0.6c-1.7-0.2-3.4-0.3-5.1-0.5c-1.8-0.2-2.5-1.6-1.5-3.1c2.2-3.5,4.4-7,6.6-10.4c1.2-1.8,2.9-2.7,5-2.7
		c3.5,0.1,7,0.3,10.5,0.5c1.4,0.1,2.2,0.8,2.1,2c-0.1,1.1-1,1.8-2.4,1.7c-3.3-0.2-6.7-0.3-10-0.5c-1-0.1-1.8,0.3-2.3,1.2
		C8.8,26.2,7.1,28.8,5.4,31.5z"/>
	<path class="st0" d="M12.2,56.3c-0.5-0.4-1.2-0.7-1.4-1.2c-0.2-0.5-0.2-1.5,0.2-1.9c1.6-1.8,3.3-3.5,5.1-5.1
		c0.7-0.7,1.8-0.5,2.4,0.2c0.6,0.7,0.7,1.7,0.1,2.3c-1.7,1.7-3.4,3.4-5.1,5.1C13.2,56,12.8,56.1,12.2,56.3"/>
	<path class="st1" d="M12.2,56.3c-0.5-0.4-1.2-0.7-1.4-1.2c-0.2-0.5-0.2-1.5,0.2-1.9c1.6-1.8,3.3-3.5,5.1-5.1
		c0.7-0.7,1.8-0.5,2.4,0.2c0.6,0.7,0.7,1.7,0.1,2.3c-1.7,1.7-3.4,3.4-5.1,5.1C13.2,56,12.8,56.1,12.2,56.3z"/>
</g>
</svg>
