<?xml version="1.0" encoding="utf-8"?>
<!-- Generator: Adobe Illustrator 23.0.3, SVG Export Plug-In . SVG Version: 6.00 Build 0)  -->
<svg version="1.1" id="Layer_1" xmlns="http://www.w3.org/2000/svg" xmlns:xlink="http://www.w3.org/1999/xlink" x="0px" y="0px"
	 viewBox="0 0 48.5 58.4" style="enable-background:new 0 0 48.5 58.4;" xml:space="preserve">
<style type="text/css">
	.st0{clip-path:url(#SVGID_2_);}
	.st1{clip-path:url(#SVGID_2_);fill:none;stroke:#000000;stroke-width:0.4;stroke-miterlimit:10;}
</style>
<g>
	<defs>
		<rect id="SVGID_1_" y="0" width="48.5" height="58.4"/>
	</defs>
	<clipPath id="SVGID_2_">
		<use xlink:href="#SVGID_1_"  style="overflow:visible;"/>
	</clipPath>
	<path class="st0" d="M24.2,58.2H1.4c-1,0-1.2-0.2-1.2-1.2c0-3.5,0-7,0-10.5C0.3,40,4.5,34.8,10.8,33.6c1.6-0.3,3.2-0.2,4.8-0.2
		c0.5,0,0.7,0.3,0.8,0.7c1.4,3.3,3.9,5.2,7.4,5.4c3.4,0.3,7-2.2,8.1-5.3c0.2-0.6,0.5-0.8,1.1-0.8c2.1,0,4.3,0,6.3,0.7
		c5.2,1.8,8.7,6.5,8.8,12.1c0.1,3.7,0,7.3,0,11c0,0.8-0.3,1-1.1,1C39.5,58.2,31.8,58.2,24.2,58.2 M38,56.5h8.5c0-0.1,0-0.2,0-0.3
		c0-3.5,0.1-6.9,0-10.4c-0.1-3.6-1.7-6.5-4.6-8.6c-2.3-1.7-4.9-2.3-7.8-2.3c-0.6,0-0.9,0.2-1.2,0.7c-2.1,4.3-7.1,6.4-11.6,5.1
		c-2.8-0.9-4.9-2.6-6.3-5.3c-0.1-0.2-0.4-0.5-0.6-0.5c-1.1,0-2.1-0.1-3.2,0.1c-5.8,1-9.7,5.6-9.7,11.5c0,3.1,0,6.2,0,9.3v0.6h8.6
		c0-0.4,0-0.8,0-1.2c0-1.6,0-3.1,0-4.7c0-0.5,0.2-0.8,0.8-0.9c0.5,0,0.8,0.3,0.9,0.9c0,0.2,0,0.3,0,0.5c0,1.6,0,3.2,0,4.7
		c0,0.2,0,0.4,0,0.6h24.3v-1.4c0-1.5,0-3,0-4.4c0-0.6,0.4-0.9,0.9-0.9c0.5,0,0.8,0.4,0.8,0.9c0,0.4,0,0.7,0,1.1
		C38,53.3,38,54.9,38,56.5"/>
	<path class="st1" d="M24.2,58.2H1.4c-1,0-1.2-0.2-1.2-1.2c0-3.5,0-7,0-10.5C0.3,40,4.5,34.8,10.8,33.6c1.6-0.3,3.2-0.2,4.8-0.2
		c0.5,0,0.7,0.3,0.8,0.7c1.4,3.3,3.9,5.2,7.4,5.4c3.4,0.3,7-2.2,8.1-5.3c0.2-0.6,0.5-0.8,1.1-0.8c2.1,0,4.3,0,6.3,0.7
		c5.2,1.8,8.7,6.5,8.8,12.1c0.1,3.7,0,7.3,0,11c0,0.8-0.3,1-1.1,1C39.5,58.2,31.8,58.2,24.2,58.2z M38,56.5h8.5c0-0.1,0-0.2,0-0.3
		c0-3.5,0.1-6.9,0-10.4c-0.1-3.6-1.7-6.5-4.6-8.6c-2.3-1.7-4.9-2.3-7.8-2.3c-0.6,0-0.9,0.2-1.2,0.7c-2.1,4.3-7.1,6.4-11.6,5.1
		c-2.8-0.9-4.9-2.6-6.3-5.3c-0.1-0.2-0.4-0.5-0.6-0.5c-1.1,0-2.1-0.1-3.2,0.1c-5.8,1-9.7,5.6-9.7,11.5c0,3.1,0,6.2,0,9.3v0.6h8.6
		c0-0.4,0-0.8,0-1.2c0-1.6,0-3.1,0-4.7c0-0.5,0.2-0.8,0.8-0.9c0.5,0,0.8,0.3,0.9,0.9c0,0.2,0,0.3,0,0.5c0,1.6,0,3.2,0,4.7
		c0,0.2,0,0.4,0,0.6h24.3v-1.4c0-1.5,0-3,0-4.4c0-0.6,0.4-0.9,0.9-0.9c0.5,0,0.8,0.4,0.8,0.9c0,0.4,0,0.7,0,1.1
		C38,53.3,38,54.9,38,56.5z"/>
	<path class="st0" d="M15.4,3c0.3,0.2,0.6,0.3,0.9,0.4c0.6,0.4,1.1,0.8,1.7,1.2c0.2,0.1,0.5,0.1,0.7,0.1c0.6-0.2,1.2-0.5,1.8-0.7
		C20.8,3.9,21,3.7,21,3.4c0.1-0.7,0.2-1.4,0.3-2.1c0.1-0.7,0.6-1,1.3-1c1.3,0,2.6,0,3.8,0c0.7,0,1.1,0.4,1.3,1.1
		c0.1,0.7,0.2,1.4,0.4,2.1c0,0.2,0.3,0.5,0.5,0.6c0.6,0.3,1.2,0.5,1.8,0.8c0.3,0.2,0.5,0.1,0.8-0.1c0.5-0.4,1.1-0.8,1.6-1.2
		C33.4,3,34,3,34.6,3.6c0.8,0.8,1.7,1.7,2.5,2.5c0.6,0.6,0.6,1.2,0.2,1.9c-0.4,0.5-0.8,1.1-1.2,1.6c-0.2,0.3-0.3,0.5-0.1,0.8
		c0.3,0.5,0.5,1,0.6,1.5c0.1,0.6,0.5,0.8,1,0.8c0.6,0.1,1.2,0.2,1.8,0.3c0.7,0.1,1.1,0.6,1.1,1.3c0,1.2,0,2.5,0,3.7
		c0,0.8-0.4,1.2-1.1,1.3c-0.7,0.1-1.4,0.2-2.1,0.3c-0.3,0-0.5,0.2-0.6,0.5c-0.2,0.6-0.4,1.2-0.7,1.8c-0.2,0.3-0.1,0.5,0.1,0.7
		c0.4,0.6,0.8,1.1,1.2,1.7c0.4,0.7,0.4,1.2-0.1,1.8c-0.9,0.9-1.7,1.8-2.6,2.6c-0.5,0.5-1.1,0.6-1.7,0.2c-0.6-0.4-1.2-0.8-1.8-1.2
		c-0.2-0.1-0.5-0.1-0.7-0.1c-0.6,0.2-1.2,0.5-1.8,0.8c-0.2,0.1-0.4,0.4-0.5,0.6c-0.2,0.7-0.2,1.4-0.4,2.1c-0.1,0.7-0.6,1.1-1.3,1.1
		c-1.3,0-2.6,0-3.8,0c-0.7,0-1.1-0.4-1.3-1.1c-0.1-0.7-0.2-1.4-0.4-2.1c0-0.2-0.3-0.5-0.5-0.6c-0.5-0.2-1.1-0.4-1.5-0.6
		c-0.5-0.3-0.8-0.2-1.2,0.1c-0.5,0.4-1,0.7-1.5,1.1c-0.7,0.4-1.2,0.4-1.7-0.1c-0.9-0.9-1.8-1.7-2.6-2.6c-0.6-0.6-0.6-1.2-0.1-1.8
		c0.4-0.6,0.8-1.1,1.2-1.7c0.1-0.2,0.1-0.5,0.1-0.7c-0.2-0.6-0.5-1.2-0.7-1.8c-0.1-0.4-0.3-0.5-0.7-0.5c-0.7-0.1-1.3-0.2-2-0.3
		c-0.8-0.1-1.1-0.5-1.2-1.3c0-1.3,0-2.5,0-3.8c0-0.8,0.4-1.2,1.2-1.3c0.7-0.1,1.4-0.2,2.1-0.3c0.3,0,0.5-0.2,0.6-0.5
		c0.2-0.6,0.5-1.2,0.7-1.8c0.1-0.2,0.1-0.5,0-0.6c-0.4-0.6-0.8-1.2-1.2-1.8c-0.5-0.7-0.4-1.2,0.1-1.8c0.9-0.9,1.7-1.7,2.6-2.6
		C14.8,3.4,15.1,3.2,15.4,3 M13.3,7.3c0.5,0.6,0.9,1.3,1.4,2c0.3,0.4,0.3,0.8,0.1,1.3c-0.4,0.9-0.8,1.8-1.1,2.7
		c-0.2,0.6-0.5,0.9-1.1,0.9c-0.8,0.1-1.6,0.2-2.4,0.4v3.2c0.9,0.1,1.7,0.3,2.5,0.4c0.6,0.1,0.8,0.4,1,0.9c0.3,0.9,0.7,1.8,1.1,2.7
		c0.2,0.5,0.3,0.9-0.1,1.3c-0.5,0.7-1,1.4-1.5,2c0.8,0.8,1.6,1.5,2.4,2.2c0.6-0.4,1.3-0.9,1.9-1.4c0.4-0.3,0.8-0.3,1.3-0.1
		c0.9,0.4,1.7,0.8,2.6,1.1c0.6,0.2,0.9,0.5,1,1.1c0.1,0.8,0.3,1.6,0.4,2.4c0.9,0,1.8,0,2.7,0c0.4,0,0.5-0.1,0.6-0.5
		c0.1-0.7,0.2-1.5,0.3-2.2c0.1-0.5,0.4-0.7,0.8-0.9c0.9-0.4,1.9-0.7,2.8-1.2c0.5-0.2,0.9-0.2,1.3,0.1c0.7,0.5,1.3,1,2,1.5
		c0.8-0.8,1.5-1.5,2.2-2.3c-0.4-0.6-0.9-1.3-1.4-1.9c-0.4-0.5-0.3-0.9-0.1-1.4c0.4-0.8,0.8-1.7,1.1-2.5c0.2-0.7,0.6-1,1.3-1.1
		c0.8-0.1,1.5-0.2,2.3-0.4v-3.2c-0.9-0.1-1.7-0.3-2.5-0.4c-0.5-0.1-0.8-0.4-1-0.9c-0.3-0.9-0.7-1.9-1.1-2.8C34,10.1,34,9.7,34.4,9.3
		c0.5-0.7,1-1.4,1.4-2C35,6.5,34.3,5.8,33.5,5c-0.6,0.4-1.3,0.8-1.9,1.3c-0.6,0.5-1,0.4-1.6,0.1c-0.8-0.4-1.6-0.8-2.4-1
		c-0.7-0.2-1-0.6-1.1-1.2c-0.1-0.8-0.2-1.5-0.4-2.3H23c-0.1,0.8-0.3,1.6-0.4,2.4c-0.1,0.6-0.4,0.9-0.9,1.1c-0.9,0.3-1.8,0.7-2.7,1.1
		c-0.5,0.2-0.9,0.3-1.3-0.1c-0.7-0.5-1.4-1-2-1.4C14.9,5.8,14.1,6.5,13.3,7.3"/>
	<path class="st1" d="M15.4,3c0.3,0.2,0.6,0.3,0.9,0.4c0.6,0.4,1.1,0.8,1.7,1.2c0.2,0.1,0.5,0.1,0.7,0.1c0.6-0.2,1.2-0.5,1.8-0.7
		C20.8,3.9,21,3.7,21,3.4c0.1-0.7,0.2-1.4,0.3-2.1c0.1-0.7,0.6-1,1.3-1c1.3,0,2.6,0,3.8,0c0.7,0,1.1,0.4,1.3,1.1
		c0.1,0.7,0.2,1.4,0.4,2.1c0,0.2,0.3,0.5,0.5,0.6c0.6,0.3,1.2,0.5,1.8,0.8c0.3,0.2,0.5,0.1,0.8-0.1c0.5-0.4,1.1-0.8,1.6-1.2
		C33.4,3,34,3,34.6,3.6c0.8,0.8,1.7,1.7,2.5,2.5c0.6,0.6,0.6,1.2,0.2,1.9c-0.4,0.5-0.8,1.1-1.2,1.6c-0.2,0.3-0.3,0.5-0.1,0.8
		c0.3,0.5,0.5,1,0.6,1.5c0.1,0.6,0.5,0.8,1,0.8c0.6,0.1,1.2,0.2,1.8,0.3c0.7,0.1,1.1,0.6,1.1,1.3c0,1.2,0,2.5,0,3.7
		c0,0.8-0.4,1.2-1.1,1.3c-0.7,0.1-1.4,0.2-2.1,0.3c-0.3,0-0.5,0.2-0.6,0.5c-0.2,0.6-0.4,1.2-0.7,1.8c-0.2,0.3-0.1,0.5,0.1,0.7
		c0.4,0.6,0.8,1.1,1.2,1.7c0.4,0.7,0.4,1.2-0.1,1.8c-0.9,0.9-1.7,1.8-2.6,2.6c-0.5,0.5-1.1,0.6-1.7,0.2c-0.6-0.4-1.2-0.8-1.8-1.2
		c-0.2-0.1-0.5-0.1-0.7-0.1c-0.6,0.2-1.2,0.5-1.8,0.8c-0.2,0.1-0.4,0.4-0.5,0.6c-0.2,0.7-0.2,1.4-0.4,2.1c-0.1,0.7-0.6,1.1-1.3,1.1
		c-1.3,0-2.6,0-3.8,0c-0.7,0-1.1-0.4-1.3-1.1c-0.1-0.7-0.2-1.4-0.4-2.1c0-0.2-0.3-0.5-0.5-0.6c-0.5-0.2-1.1-0.4-1.5-0.6
		c-0.5-0.3-0.8-0.2-1.2,0.1c-0.5,0.4-1,0.7-1.5,1.1c-0.7,0.4-1.2,0.4-1.7-0.1c-0.9-0.9-1.8-1.7-2.6-2.6c-0.6-0.6-0.6-1.2-0.1-1.8
		c0.4-0.6,0.8-1.1,1.2-1.7c0.1-0.2,0.1-0.5,0.1-0.7c-0.2-0.6-0.5-1.2-0.7-1.8c-0.1-0.4-0.3-0.5-0.7-0.5c-0.7-0.1-1.3-0.2-2-0.3
		c-0.8-0.1-1.1-0.5-1.2-1.3c0-1.3,0-2.5,0-3.8c0-0.8,0.4-1.2,1.2-1.3c0.7-0.1,1.4-0.2,2.1-0.3c0.3,0,0.5-0.2,0.6-0.5
		c0.2-0.6,0.5-1.2,0.7-1.8c0.1-0.2,0.1-0.5,0-0.6c-0.4-0.6-0.8-1.2-1.2-1.8c-0.5-0.7-0.4-1.2,0.1-1.8c0.9-0.9,1.7-1.7,2.6-2.6
		C14.8,3.4,15.1,3.2,15.4,3z M13.3,7.3c0.5,0.6,0.9,1.3,1.4,2c0.3,0.4,0.3,0.8,0.1,1.3c-0.4,0.9-0.8,1.8-1.1,2.7
		c-0.2,0.6-0.5,0.9-1.1,0.9c-0.8,0.1-1.6,0.2-2.4,0.4v3.2c0.9,0.1,1.7,0.3,2.5,0.4c0.6,0.1,0.8,0.4,1,0.9c0.3,0.9,0.7,1.8,1.1,2.7
		c0.2,0.5,0.3,0.9-0.1,1.3c-0.5,0.7-1,1.4-1.5,2c0.8,0.8,1.6,1.5,2.4,2.2c0.6-0.4,1.3-0.9,1.9-1.4c0.4-0.3,0.8-0.3,1.3-0.1
		c0.9,0.4,1.7,0.8,2.6,1.1c0.6,0.2,0.9,0.5,1,1.1c0.1,0.8,0.3,1.6,0.4,2.4c0.9,0,1.8,0,2.7,0c0.4,0,0.5-0.1,0.6-0.5
		c0.1-0.7,0.2-1.5,0.3-2.2c0.1-0.5,0.4-0.7,0.8-0.9c0.9-0.4,1.9-0.7,2.8-1.2c0.5-0.2,0.9-0.2,1.3,0.1c0.7,0.5,1.3,1,2,1.5
		c0.8-0.8,1.5-1.5,2.2-2.3c-0.4-0.6-0.9-1.3-1.4-1.9c-0.4-0.5-0.3-0.9-0.1-1.4c0.4-0.8,0.8-1.7,1.1-2.5c0.2-0.7,0.6-1,1.3-1.1
		c0.8-0.1,1.5-0.2,2.3-0.4v-3.2c-0.9-0.1-1.7-0.3-2.5-0.4c-0.5-0.1-0.8-0.4-1-0.9c-0.3-0.9-0.7-1.9-1.1-2.8C34,10.1,34,9.7,34.4,9.3
		c0.5-0.7,1-1.4,1.4-2C35,6.5,34.3,5.8,33.5,5c-0.6,0.4-1.3,0.8-1.9,1.3c-0.6,0.5-1,0.4-1.6,0.1c-0.8-0.4-1.6-0.8-2.4-1
		c-0.7-0.2-1-0.6-1.1-1.2c-0.1-0.8-0.2-1.5-0.4-2.3H23c-0.1,0.8-0.3,1.6-0.4,2.4c-0.1,0.6-0.4,0.9-0.9,1.1c-0.9,0.3-1.8,0.7-2.7,1.1
		c-0.5,0.2-0.9,0.3-1.3-0.1c-0.7-0.5-1.4-1-2-1.4C14.9,5.8,14.1,6.5,13.3,7.3z"/>
	<path class="st0" d="M16,16.1c0.1-4.7,3.9-8.5,8.6-8.5c4.7,0.1,8.5,3.9,8.5,8.7c-0.1,4.7-4,8.5-8.7,8.4C19.7,24.7,16,20.8,16,16.1
		 M31.4,16.2c0-3.8-3.1-6.9-6.7-6.9c-3.9,0-7.1,3.1-7,6.9c0.1,3.8,3.1,6.9,6.9,6.9C28.4,23,31.5,19.9,31.4,16.2"/>
	<path class="st1" d="M16,16.1c0.1-4.7,3.9-8.5,8.6-8.5c4.7,0.1,8.5,3.9,8.5,8.7c-0.1,4.7-4,8.5-8.7,8.4C19.7,24.7,16,20.8,16,16.1z
		 M31.4,16.2c0-3.8-3.1-6.9-6.7-6.9c-3.9,0-7.1,3.1-7,6.9c0.1,3.8,3.1,6.9,6.9,6.9C28.4,23,31.5,19.9,31.4,16.2z"/>
</g>
</svg>
