<?xml version="1.0" encoding="utf-8"?>
<!-- Generator: Adobe Illustrator 23.0.3, SVG Export Plug-In . SVG Version: 6.00 Build 0)  -->
<svg version="1.1" id="Layer_1" xmlns="http://www.w3.org/2000/svg" xmlns:xlink="http://www.w3.org/1999/xlink" x="0px" y="0px"
	 viewBox="0 0 56.1 59.8" style="enable-background:new 0 0 56.1 59.8;" xml:space="preserve">
<style type="text/css">
	.st0{clip-path:url(#SVGID_2_);fill:none;stroke:#000000;stroke-width:2.3;stroke-linejoin:round;}
</style>
<g>
	<defs>
		<rect id="SVGID_1_" y="0" width="56.1" height="59.8"/>
	</defs>
	<clipPath id="SVGID_2_">
		<use xlink:href="#SVGID_1_"  style="overflow:visible;"/>
	</clipPath>
	<path class="st0" d="M29,24.3c2,0,3.7,1.7,3.7,3.7c0,2-1.7,3.7-3.7,3.7c-2,0-3.7-1.7-3.7-3.7C25.3,26,27,24.3,29,24.3z"/>
	<path class="st0" d="M29,33.6c-2.9-0.1-5.4,2.2-5.6,5.1v5.1c0,1,0.8,1.8,1.9,1.9v6.3c0.3,1.2,1.4,2,2.6,2h2.2
		c1.2-0.1,2.3-0.9,2.6-2v-6.3c1,0,1.8-0.8,1.9-1.9v-5.1C34.5,35.8,32,33.5,29,33.6z"/>
	<polyline class="st0" points="47.5,52.1 47.5,21.5 54.9,21.5 54.9,18.8 28,1.2 1.1,18.8 1.1,21.5 8.6,21.5 8.6,26.2 	"/>
	<polyline class="st0" points="8.6,31.7 8.6,58.6 47.5,58.6 47.5,54 	"/>
	<line class="st0" x1="8.6" y1="28" x2="8.6" y2="29.9"/>
</g>
</svg>
