<?xml version="1.0" encoding="utf-8"?>
<!-- Generator: Adobe Illustrator 23.0.3, SVG Export Plug-In . SVG Version: 6.00 Build 0)  -->
<svg version="1.1" id="Layer_1" xmlns="http://www.w3.org/2000/svg" xmlns:xlink="http://www.w3.org/1999/xlink" x="0px" y="0px"
	 viewBox="0 0 73.3 57.2" style="enable-background:new 0 0 73.3 57.2;" xml:space="preserve">
<style type="text/css">
	.st0{clip-path:url(#SVGID_2_);fill:#FFFFFF;}
	.st1{clip-path:url(#SVGID_2_);fill:none;stroke:#FFFFFF;stroke-width:0.2;stroke-miterlimit:10;}
</style>
<g>
	<defs>
		<rect id="SVGID_1_" y="0" width="73.3" height="57.2"/>
	</defs>
	<clipPath id="SVGID_2_">
		<use xlink:href="#SVGID_1_"  style="overflow:visible;"/>
	</clipPath>
	<path class="st0" d="M49.2,35.3c-0.1-0.1-0.2-0.1-0.2-0.1c-1.4-0.2-2.4,0.2-3.2,1.5c-3.3,5.1-10.2,6.6-15.1,3.4
		c-1.6-1-2.8-2.5-3.7-4.2c-0.4-0.6-0.7-0.9-1.4-0.8c-0.4,0.1-0.9,0-1.4,0c-0.3,1.7-0.5,3.4-0.8,5c-0.2,1.4-0.4,2.8-0.6,4.1
		c-0.1,0.9-0.7,1.3-1.4,1.2c-0.7-0.1-1.1-0.7-1-1.6c0.5-3.3,1-6.6,1.6-9.9c0.1-0.9,0.5-1.2,1.5-1.3c0.6,0,1.3,0,1.9,0
		c-0.4-1.5-0.8-2.9-1.2-4.2c0-0.1-0.3-0.2-0.4-0.3c-0.1,0-0.2,0-0.2,0c-2.4-0.1-2.4-0.1-3.6,2c-0.6,1-1.2,2.1-1.8,3.1
		c-0.5,0.8-1.1,1-1.7,0.7c-0.7-0.4-0.8-1.1-0.3-1.9c1-1.8,2.1-3.6,3.1-5.4c0.3-0.6,0.8-0.9,1.5-0.9c1,0,2,0,3,0
		c0.1-1.4,0.2-2.7,0.3-4c0-0.1-0.1-0.3-0.2-0.4c0-0.1-0.1-0.1-0.2-0.1c-2.1-1.1-2.1-1.1-3.8,0.5c-0.8,0.8-1.7,1.5-2.5,2.3
		c-0.6,0.6-1.3,0.6-1.8,0c-0.5-0.5-0.4-1.2,0.2-1.8c1.5-1.4,3.1-2.8,4.6-4.2c0.5-0.5,1-0.5,1.6-0.2c0.8,0.4,1.7,0.8,2.6,1.3
		c0.2-0.6,0.4-1.2,0.6-1.8c0.3-1,0.8-1.2,1.8-0.9c6,1.4,12.1,1.5,18.1,0.3c0.1,0,0.3-0.1,0.6-0.2c-1.5-2.9-2.8-5.9-6.4-6.7
		c-4-0.9-7.4-0.1-9.7,3.8c-0.7-0.4-1.3-0.9-2.1-1.4c0.9-1.1,1.7-2.1,2.6-3.1c-0.1-0.1-0.2-0.3-0.4-0.5c-1.8-2-2.7-4.4-2.8-7
		c0-0.9,0.4-1.5,1.1-1.5c0.7-0.1,1.3,0.5,1.3,1.4c0.1,2.3,0.9,4.3,2.6,6c0.2,0.2,0.7,0.3,0.9,0.3c2.6-0.8,5.3-0.8,7.9,0
		c0.5,0.1,0.7,0.1,1.1-0.3c1.6-1.6,2.5-3.6,2.6-5.9c0-0.4,0.2-0.9,0.5-1.2c0.3-0.2,0.8-0.2,1.2-0.1c0.6,0.2,0.7,0.7,0.7,1.3
		c-0.1,2.6-0.9,4.9-2.6,6.9c-0.2,0.2-0.4,0.5-0.7,0.8c2.9,2.7,4.4,6.1,5.6,9.9c0.9-0.4,1.7-0.8,2.5-1.2c0.7-0.4,1.3-0.3,1.9,0.2
		c1.5,1.4,3,2.7,4.5,4.1c0.6,0.6,0.7,1.3,0.3,1.8c-0.5,0.5-1.2,0.5-1.8-0.1c-1.2-1.1-2.4-2.2-3.6-3.3c-0.3-0.3-0.6-0.4-1.1-0.2
		c-0.6,0.4-1.6,0.5-1.9,1.1c-0.3,0.5,0,1.4,0,2.1c0,0.7,0,1.3,0,2.1c1,0,2,0,3,0c0.8,0,1.3,0.3,1.7,1c1,1.8,2,3.5,3.1,5.3
		c0.3,0.5,0.5,1,0.1,1.6c-0.5,0.8-1.5,0.7-2.1-0.2c-0.9-1.5-1.8-3-2.7-4.6c-0.3-0.5-0.5-0.7-1.1-0.6c-0.7,0.1-1.6-0.2-2.1,0.1
		c-0.5,0.3-0.5,1.3-0.7,2c-0.3,0.8-0.5,1.6-0.8,2.5c0.7,0,1.3,0,2,0c1,0,1.4,0.3,1.5,1.3c0.5,3.3,1,6.6,1.6,9.9
		c0.1,0.8-0.3,1.5-1,1.6c-0.7,0.1-1.2-0.4-1.4-1.2c-0.4-2.8-0.9-5.6-1.3-8.3C49.3,35.8,49.2,35.5,49.2,35.3 M37.8,39.2
		c2.3-0.2,4.1-1.2,5.4-2.9c3.7-5.1,4.9-10.7,3.3-16.8c-0.1-0.6-0.4-0.6-0.9-0.5c-5.1,1-10.2,1.2-15.3,0.5c-1.1-0.2-2.2-0.3-3.3-0.5
		c-0.1,0.2-0.2,0.4-0.2,0.6c-1.7,6.2-0.4,11.8,3.3,16.9c0.6,0.9,1.6,1.5,2.5,2.1c0.8,0.5,1.8,0.8,2.9,0.7v-1c0-3.9,0-7.9,0-11.8
		c0-0.3,0-0.6,0-0.9c0.1-0.6,0.5-0.9,1.1-1c0.6,0,1.1,0.3,1.2,1c0.1,0.3,0,0.6,0,0.9c0,3.9,0,7.9,0,11.8V39.2z"/>
	<path class="st1" d="M49.2,35.3c-0.1-0.1-0.2-0.1-0.2-0.1c-1.4-0.2-2.4,0.2-3.2,1.5c-3.3,5.1-10.2,6.6-15.1,3.4
		c-1.6-1-2.8-2.5-3.7-4.2c-0.4-0.6-0.7-0.9-1.4-0.8c-0.4,0.1-0.9,0-1.4,0c-0.3,1.7-0.5,3.4-0.8,5c-0.2,1.4-0.4,2.8-0.6,4.1
		c-0.1,0.9-0.7,1.3-1.4,1.2c-0.7-0.1-1.1-0.7-1-1.6c0.5-3.3,1-6.6,1.6-9.9c0.1-0.9,0.5-1.2,1.5-1.3c0.6,0,1.3,0,1.9,0
		c-0.4-1.5-0.8-2.9-1.2-4.2c0-0.1-0.3-0.2-0.4-0.3c-0.1,0-0.2,0-0.2,0c-2.4-0.1-2.4-0.1-3.6,2c-0.6,1-1.2,2.1-1.8,3.1
		c-0.5,0.8-1.1,1-1.7,0.7c-0.7-0.4-0.8-1.1-0.3-1.9c1-1.8,2.1-3.6,3.1-5.4c0.3-0.6,0.8-0.9,1.5-0.9c1,0,2,0,3,0
		c0.1-1.4,0.2-2.7,0.3-4c0-0.1-0.1-0.3-0.2-0.4c0-0.1-0.1-0.1-0.2-0.1c-2.1-1.1-2.1-1.1-3.8,0.5c-0.8,0.8-1.7,1.5-2.5,2.3
		c-0.6,0.6-1.3,0.6-1.8,0c-0.5-0.5-0.4-1.2,0.2-1.8c1.5-1.4,3.1-2.8,4.6-4.2c0.5-0.5,1-0.5,1.6-0.2c0.8,0.4,1.7,0.8,2.6,1.3
		c0.2-0.6,0.4-1.2,0.6-1.8c0.3-1,0.8-1.2,1.8-0.9c6,1.4,12.1,1.5,18.1,0.3c0.1,0,0.3-0.1,0.6-0.2c-1.5-2.9-2.8-5.9-6.4-6.7
		c-4-0.9-7.4-0.1-9.7,3.8c-0.7-0.4-1.3-0.9-2.1-1.4c0.9-1.1,1.7-2.1,2.6-3.1c-0.1-0.1-0.2-0.3-0.4-0.5c-1.8-2-2.7-4.4-2.8-7
		c0-0.9,0.4-1.5,1.1-1.5c0.7-0.1,1.3,0.5,1.3,1.4c0.1,2.3,0.9,4.3,2.6,6c0.2,0.2,0.7,0.3,0.9,0.3c2.6-0.8,5.3-0.8,7.9,0
		c0.5,0.1,0.7,0.1,1.1-0.3c1.6-1.6,2.5-3.6,2.6-5.9c0-0.4,0.2-0.9,0.5-1.2c0.3-0.2,0.8-0.2,1.2-0.1c0.6,0.2,0.7,0.7,0.7,1.3
		c-0.1,2.6-0.9,4.9-2.6,6.9c-0.2,0.2-0.4,0.5-0.7,0.8c2.9,2.7,4.4,6.1,5.6,9.9c0.9-0.4,1.7-0.8,2.5-1.2c0.7-0.4,1.3-0.3,1.9,0.2
		c1.5,1.4,3,2.7,4.5,4.1c0.6,0.6,0.7,1.3,0.3,1.8c-0.5,0.5-1.2,0.5-1.8-0.1c-1.2-1.1-2.4-2.2-3.6-3.3c-0.3-0.3-0.6-0.4-1.1-0.2
		c-0.6,0.4-1.6,0.5-1.9,1.1c-0.3,0.5,0,1.4,0,2.1c0,0.7,0,1.3,0,2.1c1,0,2,0,3,0c0.8,0,1.3,0.3,1.7,1c1,1.8,2,3.5,3.1,5.3
		c0.3,0.5,0.5,1,0.1,1.6c-0.5,0.8-1.5,0.7-2.1-0.2c-0.9-1.5-1.8-3-2.7-4.6c-0.3-0.5-0.5-0.7-1.1-0.6c-0.7,0.1-1.6-0.2-2.1,0.1
		c-0.5,0.3-0.5,1.3-0.7,2c-0.3,0.8-0.5,1.6-0.8,2.5c0.7,0,1.3,0,2,0c1,0,1.4,0.3,1.5,1.3c0.5,3.3,1,6.6,1.6,9.9
		c0.1,0.8-0.3,1.5-1,1.6c-0.7,0.1-1.2-0.4-1.4-1.2c-0.4-2.8-0.9-5.6-1.3-8.3C49.3,35.8,49.2,35.5,49.2,35.3z M37.8,39.2
		c2.3-0.2,4.1-1.2,5.4-2.9c3.7-5.1,4.9-10.7,3.3-16.8c-0.1-0.6-0.4-0.6-0.9-0.5c-5.1,1-10.2,1.2-15.3,0.5c-1.1-0.2-2.2-0.3-3.3-0.5
		c-0.1,0.2-0.2,0.4-0.2,0.6c-1.7,6.2-0.4,11.8,3.3,16.9c0.6,0.9,1.6,1.5,2.5,2.1c0.8,0.5,1.8,0.8,2.9,0.7v-1c0-3.9,0-7.9,0-11.8
		c0-0.3,0-0.6,0-0.9c0.1-0.6,0.5-0.9,1.1-1c0.6,0,1.1,0.3,1.2,1c0.1,0.3,0,0.6,0,0.9c0,3.9,0,7.9,0,11.8V39.2z"/>
	<path class="st0" d="M36.6,49.1c11.6,0,23.2,0,34.8,0c1.6,0,2.1,0.6,1.6,2.1c-0.4,1-0.8,2-1.4,3c-1.2,2-3,2.9-5.4,2.9
		c-19.7,0-39.3,0-59,0c-2.5,0-4.4-1-5.6-3.2c-0.6-1-1-2-1.3-3.1c-0.4-1,0.2-1.7,1.3-1.7c2.1,0,4.2,0,6.4,0
		C17.5,49.1,27.1,49.1,36.6,49.1 M70.2,51.5H3.1c0.5,1.9,2,3.1,3.8,3.1c19.8,0,39.5,0,59.3,0C68.2,54.6,69.6,53.5,70.2,51.5"/>
	<path class="st1" d="M36.6,49.1c11.6,0,23.2,0,34.8,0c1.6,0,2.1,0.6,1.6,2.1c-0.4,1-0.8,2-1.4,3c-1.2,2-3,2.9-5.4,2.9
		c-19.7,0-39.3,0-59,0c-2.5,0-4.4-1-5.6-3.2c-0.6-1-1-2-1.3-3.1c-0.4-1,0.2-1.7,1.3-1.7c2.1,0,4.2,0,6.4,0
		C17.5,49.1,27.1,49.1,36.6,49.1z M70.2,51.5H3.1c0.5,1.9,2,3.1,3.8,3.1c19.8,0,39.5,0,59.3,0C68.2,54.6,69.6,53.5,70.2,51.5z"/>
	<path class="st0" d="M23.9,9.4v2.3H23c-3.5,0-7,0-10.5,0c-2.2,0-3.4,1.2-3.4,3.4c0,9.7,0,19.5,0,29.2v1.3H6.8c0-0.3,0-0.6,0-0.8
		c0-9.9,0-19.8,0-29.7c0-3.6,2.2-5.8,5.8-5.8c3.7,0,7.3,0,11,0C23.7,9.4,23.7,9.4,23.9,9.4"/>
	<path class="st1" d="M23.9,9.4v2.3H23c-3.5,0-7,0-10.5,0c-2.2,0-3.4,1.2-3.4,3.4c0,9.7,0,19.5,0,29.2v1.3H6.8c0-0.3,0-0.6,0-0.8
		c0-9.9,0-19.8,0-29.7c0-3.6,2.2-5.8,5.8-5.8c3.7,0,7.3,0,11,0C23.7,9.4,23.7,9.4,23.9,9.4z"/>
	<path class="st0" d="M66.4,45.8h-2.3V44c0-9.5,0-19.1,0-28.6c0-0.5,0-1-0.1-1.4c-0.3-1.3-1.5-2.1-2.9-2.1c-3.6,0-7.1,0-10.7,0
		c-0.3,0-0.6,0-0.9,0V9.4c0.2,0,0.5,0,0.7,0c3.5,0,7.1,0,10.6,0c3.5,0,5.7,2.2,5.7,5.7c0,10,0,20.1,0,30.1
		C66.5,45.3,66.5,45.5,66.4,45.8"/>
	<path class="st1" d="M66.4,45.8h-2.3V44c0-9.5,0-19.1,0-28.6c0-0.5,0-1-0.1-1.4c-0.3-1.3-1.5-2.1-2.9-2.1c-3.6,0-7.1,0-10.7,0
		c-0.3,0-0.6,0-0.9,0V9.4c0.2,0,0.5,0,0.7,0c3.5,0,7.1,0,10.6,0c3.5,0,5.7,2.2,5.7,5.7c0,10,0,20.1,0,30.1
		C66.5,45.3,66.5,45.5,66.4,45.8z"/>
</g>
</svg>
