<?xml version="1.0" encoding="utf-8"?>
<!-- Generator: Adobe Illustrator 23.0.3, SVG Export Plug-In . SVG Version: 6.00 Build 0)  -->
<svg version="1.1" id="Layer_1" xmlns="http://www.w3.org/2000/svg" xmlns:xlink="http://www.w3.org/1999/xlink" x="0px" y="0px"
	 viewBox="0 0 49.4 56.2" style="enable-background:new 0 0 49.4 56.2;" xml:space="preserve">
<style type="text/css">
	.st0{clip-path:url(#SVGID_2_);}
</style>
<path d="M2.2,2.2h38.2v46.1H2.2V2.2z M0,50.5h42.7V0H0V50.5z"/>
<polygon points="43.9,5.6 43.9,7.8 47.1,7.8 47.1,53.9 8.9,53.9 8.9,51.8 6.7,51.8 6.7,56.2 49.4,56.2 49.4,5.6 "/>
<g>
	<defs>
		<rect id="SVGID_1_" y="0" width="49.4" height="56.2"/>
	</defs>
	<clipPath id="SVGID_2_">
		<use xlink:href="#SVGID_1_"  style="overflow:visible;"/>
	</clipPath>
	<path class="st0" d="M22.6,15.1c-1.2-1.1-1.8-2.5-1.4-4.1c0.5-2.2,2.6-3.6,4.8-3.1c2.2,0.5,3.6,2.6,3.1,4.8c-0.1,0.5,0,0.8,0.5,1
		c0.3,0.1,0.5,0.3,0.8,0.5c0.9,0.6,1.6,1,2.9,0.4c1.6-0.8,3.6,0,4.6,1.6c1,1.5,0.8,3.5-0.4,4.9c-1.2,1.4-3.2,1.8-4.9,0.9
		c-1.6-0.8-2.5-2.7-2.1-4.4c0.1-0.5,0-0.8-0.5-1c-0.8-0.4-1.6-0.9-2.1-1.2c-1.1,0.3-2,0.4-2.9,0.7c-0.2,0-0.4,0.1-0.4,0.2
		C23.3,18.1,22.2,20,21,22c1.2,1.2,1.7,2.5,1.3,4.1c-0.5,2.1-2.6,3.5-4.7,3c-2.2-0.5-3.6-2.5-3.2-4.7c0.1-0.5,0-0.7-0.4-1
		c-0.6-0.4-1.2-0.8-1.7-1.2c-0.4-0.3-0.8-0.4-1.3-0.1c-1.7,0.8-3.6,0.2-4.7-1.2C5.1,19.5,5,17.6,6,16.1c1-1.5,2.9-2.1,4.6-1.6
		c1.7,0.6,2.8,2.2,2.8,4c0,0.3,0,0.7-0.2,1c-0.3,0.6,0,0.9,0.4,1.1c0.2,0.1,0.4,0.3,0.6,0.4c0.8,0.7,1.6,1.2,2.6,0.3
		c0.3-0.2,0.8-0.3,1.1-0.3c0.7,0.1,1.1-0.3,1.4-0.9C20.5,18.5,21.5,16.8,22.6,15.1 M27,11.9c0-1-0.8-1.8-1.9-1.8
		c-1,0-1.8,0.9-1.8,1.9c0,1,0.9,1.8,1.9,1.8C26.2,13.7,27,12.9,27,11.9 M9.4,16.5c-1,0-1.8,0.8-1.8,1.8c0,1,0.8,1.8,1.8,1.8
		c1,0,1.8-0.8,1.8-1.8C11.2,17.3,10.4,16.5,9.4,16.5 M36.2,18.4c0-1-0.8-1.8-1.8-1.8c-1,0-1.8,0.8-1.8,1.8c0,1,0.8,1.8,1.8,1.8
		C35.4,20.2,36.2,19.4,36.2,18.4 M16.5,25.1c0,1,0.8,1.9,1.8,1.9c1,0,1.9-0.8,1.9-1.8c0-1-0.8-1.9-1.8-1.9
		C17.4,23.3,16.6,24.1,16.5,25.1"/>
	<rect x="10.1" y="33.8" class="st0" width="22.4" height="2.1"/>
	<rect x="10.1" y="40.5" class="st0" width="22.4" height="2.1"/>
</g>
</svg>
