<?xml version="1.0" encoding="utf-8"?>
<!-- Generator: Adobe Illustrator 23.0.3, SVG Export Plug-In . SVG Version: 6.00 Build 0)  -->
<svg version="1.1" id="Layer_1" xmlns="http://www.w3.org/2000/svg" xmlns:xlink="http://www.w3.org/1999/xlink" x="0px" y="0px"
	 viewBox="0 0 69.5 55" style="enable-background:new 0 0 69.5 55;" xml:space="preserve">
<style type="text/css">
	.st0{clip-path:url(#SVGID_2_);}
</style>
<g>
	<defs>
		<rect id="SVGID_1_" width="69.5" height="55"/>
	</defs>
	<clipPath id="SVGID_2_">
		<use xlink:href="#SVGID_1_"  style="overflow:visible;"/>
	</clipPath>
	<path class="st0" d="M55.8,32.2c0.5-0.7,0.9-1.4,1.5-2c0.8-1,1.4-1,2.2,0c2.2,2.6,5,3.6,8.3,3c1.4-0.2,1.9,0.2,1.7,1.6
		c-0.6,3.9-1.1,7.7-2,11.5c-1.1,4.5-4.5,7-8.6,8.7c-0.4,0.2-1,0-1.4-0.2c-1.8-1.1-3.6-2.3-5.3-3.6c-0.7-0.5-1.2-0.9-2.1-0.9
		c-16,0-32,0-48,0c-2,0-2.1-0.1-2.1-2.1C0,31,0,19.3,0,2c0-1.9,0.2-2,2-2c17.1,0,34.2,0,51.3,0c1.8,0,2,0.2,2,2
		c0,11.3,0,17.1,0,28.4v1.3C55.4,31.9,55.6,32,55.8,32.2 M2.3,14v34h47.2c-0.5-2.2-1.1-4.2-1.4-6.4c-0.3-2.2-0.5-4.4-0.6-6.6
		c-0.1-1.8,0.2-2.1,2.1-1.9c1.1,0.1,2.3,0,3.4,0V14H2.3z M2.3,11.7h50.6V2.3H2.3V11.7z M49.6,35.7c0.3,2.5,0.7,5,1,7.5
		c0.6,4.4,3.3,7.2,7.1,9.2c0.4,0.2,1,0.2,1.4,0c3.5-1.7,5.9-4.2,6.6-8.2c0.2-1,0.4-2,0.6-3c0.3-1.8,0.5-3.7,0.8-5.6
		c-3.5,0.2-6.3-0.9-8.7-3.1C55.5,34.8,55.3,34.9,49.6,35.7"/>
	<path class="st0" d="M37.3,5.9c3,0,6,0,9.1,0c0.4,0,0.9,0,1.2,0.1c0.3,0.2,0.7,0.6,0.7,1c0,0.3-0.3,0.8-0.6,0.9
		c-0.4,0.2-0.8,0.2-1.3,0.2c-6.1,0-12.2,0-18.2,0c-0.2,0-0.6,0.1-0.7,0c-0.4-0.3-1.1-0.8-1-1.1c0.1-0.4,0.7-1.1,1.1-1.1
		c1.6-0.1,3.1-0.1,4.7-0.1C34,5.9,35.7,5.9,37.3,5.9"/>
	<path class="st0" d="M17.8,5.9c0.7,0,1.4-0.1,2,0c0.5,0.1,0.8,0.7,1.2,1c-0.4,0.4-0.7,1.1-1.2,1.1c-1.4,0.1-2.9,0.1-4.3,0
		c-0.4,0-1.1-0.7-1-1c0.1-0.4,0.6-1,1.1-1.1C16.3,5.8,17.1,5.9,17.8,5.9L17.8,5.9z"/>
	<path class="st0" d="M9,8.1c-0.7,0-1.5,0.1-2.2-0.1c-0.4-0.1-1-0.7-1-1.2c0-0.3,0.6-1,1-1c1.4-0.1,2.9-0.1,4.3,0
		c0.4,0,0.8,0.7,1.1,1c-0.4,0.4-0.7,1-1.1,1.1C10.5,8.3,9.8,8.1,9,8.1L9,8.1z"/>
</g>
</svg>
