<?xml version="1.0" encoding="utf-8"?>
<!-- Generator: Adobe Illustrator 23.0.3, SVG Export Plug-In . SVG Version: 6.00 Build 0)  -->
<svg version="1.1" id="Layer_1" xmlns="http://www.w3.org/2000/svg" xmlns:xlink="http://www.w3.org/1999/xlink" x="0px" y="0px"
	 viewBox="0 0 78 78" style="enable-background:new 0 0 78 78;" xml:space="preserve">
<style type="text/css">
	.st0{clip-path:url(#SVGID_2_);fill:#FFFFFF;}
</style>
<g>
	<defs>
		<rect id="SVGID_1_" x="20.8" y="28" width="36.3" height="22.1"/>
	</defs>
	<clipPath id="SVGID_2_">
		<use xlink:href="#SVGID_1_"  style="overflow:visible;"/>
	</clipPath>
	<path class="st0" d="M38.8,50c-4.3-0.1-8.1-1.7-11.5-4.2c-2.3-1.7-4.2-3.7-6-5.9c-0.5-0.7-0.6-1.2-0.1-1.8
		c3.7-4.6,8.2-8.2,14.1-9.7c5.2-1.3,10,0,14.3,2.9c2.8,1.8,5.1,4.2,7.2,6.7c0.5,0.6,0.5,1.2,0.1,1.7c-3.8,4.7-8.3,8.3-14.3,9.7
		C41.3,49.8,40,49.9,38.8,50 M23.7,39.1c1.6,1.5,3.1,3,4.7,4.3c5.5,4.4,11.5,5.4,18,2.1c3.1-1.6,5.7-3.8,7.9-6.5
		c-2.7-3.1-5.6-5.7-9.4-7.3c-2.9-1.2-5.9-1.5-9-0.7C30.9,32.2,27.1,35.2,23.7,39.1"/>
	<path class="st0" d="M45.4,39c-0.1,3.6-3,6.4-6.5,6.4c-3.6-0.1-6.4-3-6.4-6.5c0.1-3.6,3-6.4,6.5-6.4C42.7,32.6,45.5,35.5,45.4,39
		 M38.9,42.9c2.1,0.1,3.9-1.7,4-3.8c0.1-2.1-1.6-3.9-3.8-4c-2.1-0.1-3.9,1.6-4,3.8C35,41,36.7,42.8,38.9,42.9"/>
</g>
</svg>
