<?xml version="1.0" encoding="utf-8"?>
<!-- Generator: Adobe Illustrator 23.0.3, SVG Export Plug-In . SVG Version: 6.00 Build 0)  -->
<svg version="1.1" id="Layer_1" xmlns="http://www.w3.org/2000/svg" xmlns:xlink="http://www.w3.org/1999/xlink" x="0px" y="0px"
	 viewBox="0 0 56.6 61.4" style="enable-background:new 0 0 56.6 61.4;" xml:space="preserve">
<style type="text/css">
	.st0{clip-path:url(#SVGID_2_);fill:#FFFFFF;}
</style>
<g>
	<defs>
		<rect id="SVGID_1_" y="0" width="56.6" height="61.4"/>
	</defs>
	<clipPath id="SVGID_2_">
		<use xlink:href="#SVGID_1_"  style="overflow:visible;"/>
	</clipPath>
	<path class="st0" d="M56.6,46.8c0,8.1-6.6,14.6-14.6,14.6c-8,0-14.6-6.6-14.6-14.7c0-8,6.6-14.5,14.6-14.5
		C50,32.2,56.6,38.7,56.6,46.8 M54.1,46.8c0-6.7-5.5-12.2-12.1-12.2c-6.8,0-12.2,5.4-12.3,12.2c0,6.7,5.4,12.2,12.1,12.2
		C48.6,59,54.1,53.5,54.1,46.8"/>
	<path class="st0" d="M28,57.7v2.4h-0.8c-7.6,0-15.1,0-22.7,0c-2.8,0-4.5-1.7-4.5-4.5c0-14.4,0-28.7,0-43.1c0-2.6,1.7-4.3,4.3-4.4
		c1.1,0,2.2,0,3.3,0v2.4c-1,0-2,0-3,0c-1.7,0-2.2,0.6-2.2,2.2c0,14.2,0,28.4,0,42.7c0,1.6,0.6,2.2,2.2,2.2c7.4,0,14.9,0,22.3,0H28z"
		/>
	<path class="st0" d="M11.1,14.5V4.8c1.3,0,2.6,0,3.8,0c0.8,0,1.2-0.2,1.5-1C17.3,1.5,19.6,0,22,0c2.5,0,4.8,1.6,5.5,3.9
		c0.3,0.8,0.6,0.9,1.3,0.9c1.3,0,2.6,0,3.9,0v9.8H11.1z M13.5,12.1h16.9V7.2h-2.3h-2.1c-0.4-1.2-0.6-2.4-1.1-3.3
		c-0.6-1-1.7-1.5-2.9-1.4c-0.8,0.1-1.6,0.4-2.3,0.8c-1.3,0.9-1.4,2.4-1.4,3.9h-4.8V12.1z"/>
	<path class="st0" d="M36.3,10.5V8.2c1.6,0,3.1-0.2,4.6,0c1.8,0.2,3.1,1.9,3.1,3.7c0,5.4,0,10.9,0,16.3c0,0.1,0,0.1-0.1,0.3h-2.3
		v-0.9c0-5,0-10,0-15c0-1.5-0.6-2.1-2.1-2.1C38.5,10.5,37.4,10.5,36.3,10.5"/>
	<rect x="16.2" y="23.2" class="st0" width="19.6" height="2.3"/>
	<rect x="16.2" y="31" class="st0" width="14.8" height="2.3"/>
	<rect x="16.2" y="38.8" class="st0" width="8.8" height="2.3"/>
	<rect x="16.2" y="46.6" class="st0" width="7.5" height="2.3"/>
	<rect x="8.8" y="22.8" class="st0" width="3.1" height="3.1"/>
	<rect x="8.8" y="30.6" class="st0" width="3.1" height="3.1"/>
	<rect x="8.7" y="38.4" class="st0" width="3.1" height="3.1"/>
	<rect x="8.7" y="46.2" class="st0" width="3.2" height="3.1"/>
	<path class="st0" d="M47.3,40.9c-2.1,2.7-4.1,5.3-6.2,8c-1.5-1.2-3-2.4-4.5-3.6c-0.5,0.7-1,1.2-1.5,1.9c2.2,1.8,4.2,3.5,6.4,5.2
		c2.6-3.4,5.2-6.7,7.7-10C48.6,41.9,48,41.4,47.3,40.9"/>
	<path class="st0" d="M47.3,40.9c0.7,0.5,1.3,1,1.9,1.5c-2.6,3.3-5.1,6.6-7.7,10c-2.1-1.7-4.2-3.4-6.4-5.2c0.5-0.6,1-1.2,1.5-1.9
		c1.5,1.2,3,2.4,4.5,3.6C43.2,46.3,45.2,43.6,47.3,40.9"/>
</g>
</svg>
